<svg id="Calque_1" data-name="Calque 1" xmlns="http://www.w3.org/2000/svg" xmlns:xlink="http://www.w3.org/1999/xlink" viewBox="0 0 1482.4 673.24"><defs><style>.cls-1,.cls-12,.cls-15,.cls-17,.cls-18,.cls-2,.cls-21,.cls-23,.cls-27,.cls-29,.cls-3,.cls-4,.cls-6{fill:none;}.cls-1,.cls-10,.cls-14,.cls-16,.cls-17,.cls-25,.cls-5{stroke:#fff;}.cls-1,.cls-23,.cls-29{stroke-miterlimit:10;}.cls-1,.cls-12,.cls-18,.cls-23,.cls-27{stroke-width:0.5px;}.cls-3,.cls-4{stroke:#1d1d1b;}.cls-3{stroke-linecap:square;stroke-width:0.3px;}.cls-10,.cls-11,.cls-12,.cls-13,.cls-14,.cls-15,.cls-16,.cls-17,.cls-18,.cls-21,.cls-25,.cls-26,.cls-27,.cls-4,.cls-5,.cls-6{stroke-linecap:round;}.cls-4{stroke-width:0.75px;}.cls-5{fill:gray;}.cls-10,.cls-11,.cls-12,.cls-13,.cls-14,.cls-15,.cls-16,.cls-17,.cls-18,.cls-21,.cls-25,.cls-26,.cls-27,.cls-5,.cls-6{stroke-linejoin:round;}.cls-10,.cls-11,.cls-13,.cls-14,.cls-15,.cls-16,.cls-17,.cls-21,.cls-25,.cls-26,.cls-5,.cls-6{stroke-width:0.43px;}.cls-6{stroke:#000;}.cls-7{clip-path:url(#clip-path);}.cls-16,.cls-8{fill:#333;}.cls-9{fill:#fff;}.cls-10{fill:url(#Pattes_d_oiseaux);}.cls-11,.cls-13,.cls-15,.cls-26{stroke:#f2f2f2;}.cls-11{fill:url(#Pattes_d_oiseaux-3);}.cls-12{stroke:lime;}.cls-13,.cls-14,.cls-28{fill:red;}.cls-18{stroke:#00ff03;}.cls-19,.cls-20,.cls-22{font-size:14px;}.cls-19{fill:lime;}.cls-19,.cls-20,.cls-22,.cls-28,.cls-30{font-family:MyriadPro-Regular, Myriad Pro;}.cls-20{fill:#00ff08;}.cls-21,.cls-23{stroke:#29abe2;}.cls-22{fill:#0099cd;}.cls-24{clip-path:url(#clip-path-2);}.cls-25{fill:url(#Pattes_d_oiseaux-5);}.cls-26{fill:url(#Pattes_d_oiseaux-7);}.cls-27{stroke:red;}.cls-28,.cls-30{font-size:12px;}.cls-29{stroke:#ff0;}.cls-30{fill:#ff0;}</style><clipPath id="clip-path"><polyline class="cls-1" points="121.52 378.3 261.78 378.3 261.78 332.8 121.52 332.8"/></clipPath><pattern id="Pattes_d_oiseaux" data-name="Pattes d’oiseaux" width="65.25" height="65.25" patternTransform="translate(-251.17 -549.28) scale(1 0.94)" patternUnits="userSpaceOnUse" viewBox="0 0 65.25 65.25"><rect class="cls-2" width="65.25" height="65.25"/><line class="cls-3" x1="67.54" y1="61.59" x2="62.02" y2="65.89"/><line class="cls-3" x1="70" y1="64.75" x2="64.47" y2="69.05"/><line class="cls-3" x1="47.19" y1="62.53" x2="43.5" y2="68"/><line class="cls-3" x1="49.93" y1="65.44" x2="44.83" y2="70.23"/><line class="cls-3" x1="53.13" y1="64.47" x2="55.5" y2="70.25"/><line class="cls-3" x1="56.25" y1="63.25" x2="59" y2="70"/><line class="cls-3" x1="28" y1="63.75" x2="22.31" y2="68.13"/><line class="cls-3" x1="32" y1="64.75" x2="25.3" y2="70.79"/><line class="cls-3" x1="9.25" y1="64.5" x2="9" y2="66"/><line class="cls-3" x1="14.22" y1="62.67" x2="18.5" y2="68.5"/><line class="cls-3" x1="17.05" y1="59.84" x2="21.33" y2="65.67"/><line class="cls-3" x1="38.75" y1="62.75" x2="39.25" y2="69.25"/><line class="cls-3" x1="36" y1="62" x2="34.5" y2="68.75"/><line class="cls-3" x1="2.29" y1="61.59" x2="-3.23" y2="65.89"/><line class="cls-3" x1="4.75" y1="64.75" x2="-0.78" y2="69.05"/><line class="cls-3" x1="22.49" y1="23.04" x2="19.25" y2="29.25"/><line class="cls-3" x1="36.42" y1="43.45" x2="44" y2="45.5"/><line class="cls-3" x1="37.5" y1="40.5" x2="45.25" y2="41.75"/><line class="cls-3" x1="30" y1="60.75" x2="32.75" y2="55.5"/><line class="cls-3" x1="26.5" y1="60.25" x2="29.52" y2="54.46"/><line class="cls-3" x1="46" y1="55.5" x2="41.25" y2="59"/><line class="cls-3" x1="47.25" y1="58" x2="43.5" y2="62"/><line class="cls-3" x1="49.88" y1="46.3" x2="50.78" y2="53.25"/><line class="cls-3" x1="45.98" y1="47.21" x2="47.53" y2="53.75"/><line class="cls-3" x1="14.22" y1="62.67" x2="18.5" y2="68.5"/><line class="cls-3" x1="17.05" y1="59.84" x2="21.33" y2="65.67"/><line class="cls-3" x1="20.53" y1="48.64" x2="23.96" y2="54.74"/><line class="cls-3" x1="24.23" y1="47.13" x2="26.87" y2="53.61"/><line class="cls-3" x1="33" y1="44.5" x2="27.75" y2="47.5"/><line class="cls-3" x1="35.5" y1="47.75" x2="29.75" y2="49.75"/><line class="cls-3" x1="47.19" y1="62.53" x2="43.5" y2="68"/><line class="cls-3" x1="49.93" y1="65.44" x2="44.83" y2="70.23"/><line class="cls-3" x1="53.13" y1="64.47" x2="55.5" y2="70.25"/><line class="cls-3" x1="28" y1="63.75" x2="22.31" y2="68.13"/><line class="cls-3" x1="32" y1="64.75" x2="25.3" y2="70.79"/><line class="cls-3" x1="21.5" y1="58.25" x2="22" y2="59.5"/><line class="cls-3" x1="37.75" y1="60.25" x2="38.75" y2="61.25"/><line class="cls-3" x1="38.75" y1="62.75" x2="39.25" y2="69.25"/><line class="cls-3" x1="36" y1="62" x2="34.5" y2="68.75"/><line class="cls-3" x1="53.28" y1="50" x2="54.53" y2="49.5"/><line class="cls-3" x1="32.5" y1="50.5" x2="32.75" y2="52"/><line class="cls-3" x1="50.5" y1="62" x2="51.75" y2="62"/><line class="cls-3" x1="33.75" y1="60" x2="32.75" y2="61.75"/><line class="cls-3" x1="38" y1="47.25" x2="39.25" y2="46.75"/><line class="cls-3" x1="40.24" y1="55.47" x2="35.81" y2="52.75"/><line class="cls-3" x1="42.97" y1="53.07" x2="36.62" y2="50.14"/><line class="cls-3" x1="35.5" y1="55.75" x2="36.75" y2="56"/><line class="cls-3" x1="42.28" y1="49" x2="43.53" y2="49.25"/><line class="cls-3" x1="18.62" y1="54.25" x2="20.25" y2="53.75"/><line class="cls-3" x1="26.99" y1="8.45" x2="27.12" y2="15.45"/><line class="cls-3" x1="30.99" y1="8.38" x2="30.25" y2="15"/><line class="cls-3" x1="43.64" y1="27.73" x2="50.12" y2="30.38"/><line class="cls-3" x1="45.15" y1="24.03" x2="51.63" y2="26.67"/><line class="cls-3" x1="27.12" y1="23.58" x2="31.89" y2="19.94"/><line class="cls-3" x1="24.09" y1="21.57" x2="30" y2="17.82"/><line class="cls-3" x1="18.5" y1="41.38" x2="11.72" y2="43.13"/><line class="cls-3" x1="19.25" y1="45" x2="12.47" y2="46.76"/><line class="cls-3" x1="19.69" y1="21.19" x2="16.45" y2="27.4"/><line class="cls-3" x1="8.74" y1="9.89" x2="10.07" y2="16.76"/><line class="cls-3" x1="12.66" y1="9.13" x2="14" y2="16"/><line class="cls-3" x1="0.57" y1="6.97" x2="6.75" y2="10.25"/><line class="cls-3" x1="3.5" y1="16.5" x2="2.32" y2="22.49"/><line class="cls-3" x1="7.57" y1="16.38" x2="6.25" y2="23.25"/><line class="cls-3" x1="56.37" y1="44.2" x2="58.78" y2="51.75"/><line class="cls-3" x1="60.53" y1="44.25" x2="61.28" y2="50.75"/><line class="cls-3" x1="53.03" y1="36.46" x2="49.02" y2="42.2"/><line class="cls-3" x1="55.77" y1="37.79" x2="54.03" y2="43.25"/><line class="cls-3" x1="26.95" y1="27.8" x2="27.75" y2="34.75"/><line class="cls-3" x1="29.93" y1="26.99" x2="31.63" y2="33.78"/><line class="cls-3" x1="52.81" y1="4.88" x2="46.46" y2="7.84"/><line class="cls-3" x1="54.25" y1="7.75" x2="48.16" y2="11.46"/><line class="cls-3" x1="17.65" y1="12.48" x2="19.25" y2="19"/><line class="cls-3" x1="19.73" y1="10.2" x2="22.83" y2="16.48"/><line class="cls-3" x1="37.5" y1="14.25" x2="34" y2="20.5"/><line class="cls-3" x1="40.13" y1="15.42" x2="36.19" y2="21.2"/><line class="cls-3" x1="50" y1="15.75" x2="43.75" y2="18.25"/><line class="cls-3" x1="50.5" y1="20.25" x2="44.25" y2="20.5"/><line class="cls-3" x1="56.22" y1="17.42" x2="54.53" y2="23.75"/><line class="cls-3" x1="58.95" y1="19.91" x2="55.47" y2="25.98"/><line class="cls-3" x1="57.14" y1="53.16" x2="50.8" y2="56.13"/><line class="cls-3" x1="58.84" y1="56.78" x2="52.5" y2="59.75"/><line class="cls-3" x1="47.25" y1="37" x2="43" y2="32.25"/><line class="cls-3" x1="44.5" y1="37.75" x2="39.68" y2="33.34"/><line class="cls-3" x1="30.53" y1="39.25" x2="34.5" y2="34.25"/><line class="cls-3" x1="32.93" y1="42.45" x2="37.25" y2="36.5"/><line class="cls-3" x1="22.43" y1="31.52" x2="15.47" y2="30.78"/><line class="cls-3" x1="21.5" y1="34.75" x2="14.66" y2="33.28"/><line class="cls-3" x1="6.75" y1="36.75" x2="12.35" y2="40.95"/><line class="cls-3" x1="9.15" y1="33.55" x2="14.75" y2="37.75"/><line class="cls-3" x1="13.99" y1="49.49" x2="13.42" y2="56.47"/><line class="cls-3" x1="17.75" y1="50" x2="16.81" y2="57.42"/><line class="cls-3" x1="20.17" y1="40.33" x2="25.12" y2="45.28"/><line class="cls-3" x1="23" y1="37.5" x2="27.95" y2="42.45"/><line class="cls-3" x1="8.5" y1="46.25" x2="3.93" y2="50.46"/><line class="cls-3" x1="10.78" y1="48.7" x2="5.25" y2="53"/><line class="cls-3" x1="56.12" y1="14.59" x2="63.1" y2="13.99"/><line class="cls-3" x1="56.25" y1="11.25" x2="62.75" y2="10"/><line class="cls-3" x1="36.25" y1="23.25" x2="37" y2="30.25"/><line class="cls-3" x1="40.25" y1="23.25" x2="39.75" y2="28.75"/><line class="cls-3" x1="11.96" y1="1.11" x2="9.1" y2="6.08"/><line class="cls-3" x1="6.46" y1="32.23" x2="12.21" y2="28.24"/><line class="cls-3" x1="4.18" y1="28.94" x2="9.94" y2="24.95"/><line class="cls-3" x1="4.14" y1="58.23" x2="8.5" y2="62.5"/><line class="cls-3" x1="6.57" y1="56.56" x2="10.5" y2="60"/><line class="cls-3" x1="60.75" y1="22.25" x2="65.07" y2="27.76"/><line class="cls-3" x1="63.4" y1="20.03" x2="67.72" y2="25.54"/><line class="cls-3" x1="58.5" y1="28.63" x2="51.72" y2="30.38"/><line class="cls-3" x1="59.5" y1="32.5" x2="52.72" y2="34.26"/><line class="cls-3" x1="15.75" y1="19.5" x2="8.84" y2="19.07"/><line class="cls-3" x1="16.25" y1="22.25" x2="9.29" y2="23.04"/><line class="cls-3" x1="60.26" y1="55.7" x2="64.19" y2="61.5"/><line class="cls-3" x1="63.57" y1="53.46" x2="67.5" y2="59.25"/><line class="cls-3" x1="63.75" y1="30.75" x2="60.04" y2="35.09"/><line class="cls-3" x1="67.13" y1="31.26" x2="63.44" y2="37.2"/><line class="cls-3" x1="67.54" y1="61.59" x2="62.02" y2="65.89"/><line class="cls-3" x1="56.25" y1="63.25" x2="59" y2="70"/><line class="cls-3" x1="63.94" y1="10.5" x2="70.12" y2="13.78"/><line class="cls-3" x1="16.58" y1="9.47" x2="21" y2="6.75"/><line class="cls-3" x1="13.84" y1="7.07" x2="20.2" y2="4.14"/><line class="cls-3" x1="36.12" y1="8.13" x2="40.87" y2="12.88"/><line class="cls-3" x1="39.27" y1="5.66" x2="43.59" y2="11.17"/><line class="cls-3" x1="67.73" y1="39.48" x2="62.5" y2="42"/><line class="cls-3" x1="70.56" y1="42.08" x2="64.45" y2="45.49"/><line class="cls-3" x1="30" y1="3.75" x2="31.25" y2="4"/><line class="cls-3" x1="29.25" y1="6.75" x2="29" y2="6"/><line class="cls-3" x1="34" y1="12.25" x2="34.75" y2="11.75"/><line class="cls-3" x1="45" y1="10" x2="46.25" y2="10"/><line class="cls-3" x1="51.75" y1="14.5" x2="52.5" y2="15.25"/><line class="cls-3" x1="60.75" y1="18" x2="61.5" y2="17.25"/><line class="cls-3" x1="62.25" y1="5.75" x2="61.75" y2="6.75"/><line class="cls-3" x1="6" y1="13.5" x2="6.75" y2="14"/><line class="cls-3" x1="12.25" y1="30.75" x2="12.25" y2="31.5"/><line class="cls-3" x1="5.5" y1="34.75" x2="4" y2="34.75"/><line class="cls-3" x1="9.75" y1="54.5" x2="10.25" y2="53.25"/><line class="cls-3" x1="18.25" y1="37.75" x2="17.5" y2="36.75"/><line class="cls-3" x1="49.25" y1="34.25" x2="50" y2="33.5"/><line class="cls-3" x1="39.28" y1="37" x2="39.78" y2="38"/><line class="cls-3" x1="25.5" y1="18.75" x2="26.25" y2="18"/><line class="cls-3" x1="23.25" y1="27.75" x2="24.5" y2="28.5"/><line class="cls-3" x1="9.25" y1="64.5" x2="9" y2="66"/><line class="cls-3" x1="38.25" y1="33.75" x2="37.75" y2="32.5"/><line class="cls-3" x1="67.54" y1="-3.66" x2="62.02" y2="0.64"/><line class="cls-3" x1="70" y1="-0.5" x2="64.47" y2="3.8"/><line class="cls-3" x1="47.19" y1="-2.72" x2="43.5" y2="2.75"/><line class="cls-3" x1="49.93" y1="0.19" x2="44.83" y2="4.98"/><line class="cls-3" x1="53.13" y1="-0.78" x2="55.5" y2="5"/><line class="cls-3" x1="56.25" y1="-2" x2="59" y2="4.75"/><line class="cls-3" x1="28" y1="-1.5" x2="22.31" y2="2.88"/><line class="cls-3" x1="32" y1="-0.5" x2="25.3" y2="5.54"/><line class="cls-3" x1="9.25" y1="-0.75" x2="9" y2="0.75"/><line class="cls-3" x1="14.22" y1="-2.58" x2="18.5" y2="3.25"/><line class="cls-3" x1="17.05" y1="-5.41" x2="21.33" y2="0.42"/><line class="cls-3" x1="58.53" y1="59.5" x2="59.03" y2="60.75"/><line class="cls-3" x1="38.75" y1="-2.5" x2="39.25" y2="4"/><line class="cls-3" x1="36" y1="-3.25" x2="34.5" y2="3.5"/><line class="cls-3" x1="45.75" y1="13.75" x2="46.5" y2="14.5"/><line class="cls-3" x1="32.75" y1="25.5" x2="34" y2="25.75"/><line class="cls-3" x1="63.5" y1="51" x2="64.25" y2="50.25"/><line class="cls-3" x1="8.25" y1="1.75" x2="4.85" y2="6.08"/><line class="cls-3" x1="61.5" y1="38.25" x2="62.75" y2="38.5"/><line class="cls-3" x1="23.25" y1="10" x2="24.25" y2="10.75"/><line class="cls-3" x1="36.25" y1="4.5" x2="36.5" y2="5.75"/><line class="cls-3" x1="11" y1="8.5" x2="11.5" y2="7"/><line class="cls-4" x1="3.25" y1="3.75" x2="3.25" y2="3.75"/><line class="cls-4" x1="6.25" y1="7" x2="6.25" y2="7"/><line class="cls-4" x1="13" y1="1.5" x2="13" y2="1.5"/><line class="cls-4" x1="23.25" y1="8.5" x2="23.25" y2="8.5"/><line class="cls-4" x1="17" y1="15.25" x2="17" y2="15.25"/><line class="cls-4" x1="14.5" y1="25" x2="14.5" y2="25"/><line class="cls-4" x1="3.75" y1="24" x2="3.75" y2="24"/><line class="cls-4" x1="20.5" y1="36" x2="20.5" y2="36"/><line class="cls-4" x1="25.75" y1="31.75" x2="25.75" y2="31.75"/><line class="cls-4" x1="33.5" y1="23.25" x2="33.5" y2="23.25"/><line class="cls-4" x1="28" y1="40.25" x2="28" y2="40.25"/><line class="cls-4" x1="32.75" y1="43" x2="32.75" y2="43"/><line class="cls-4" x1="18.75" y1="47.25" x2="18.75" y2="47.25"/><line class="cls-4" x1="42" y1="24.75" x2="42" y2="24.75"/><line class="cls-4" x1="41.75" y1="16.25" x2="41.75" y2="16.25"/><line class="cls-4" x1="58.25" y1="7.5" x2="58.25" y2="7.5"/><line class="cls-4" x1="50.25" y1="4" x2="50.25" y2="4"/><line class="cls-4" x1="61" y1="27.25" x2="61" y2="27.25"/><line class="cls-4" x1="59.5" y1="38.25" x2="59.5" y2="38.25"/><line class="cls-4" x1="54" y1="45" x2="54" y2="45"/><line class="cls-4" x1="57.5" y1="55" x2="57.5" y2="55"/><line class="cls-4" x1="50" y1="59.75" x2="50" y2="59.75"/><line class="cls-4" x1="28.5" y1="61" x2="28.5" y2="61"/><line class="cls-4" x1="39.5" y1="63.5" x2="39.5" y2="63.5"/><line class="cls-4" x1="25.25" y1="15.75" x2="25.25" y2="15.75"/><line class="cls-4" x1="10.75" y1="62.75" x2="10.75" y2="62.75"/><line class="cls-4" x1="0.75" y1="51.5" x2="0.75" y2="51.5"/><line class="cls-4" x1="3.75" y1="44.25" x2="3.75" y2="44.25"/><line class="cls-4" x1="9" y1="40.5" x2="9" y2="40.5"/><line class="cls-4" x1="9.75" y1="44.25" x2="9.75" y2="44.25"/><line class="cls-4" x1="50.75" y1="22.5" x2="50.75" y2="22.5"/><line class="cls-4" x1="48" y1="32.25" x2="48" y2="32.25"/><line class="cls-4" x1="46.25" y1="40.5" x2="46.25" y2="40.5"/><line class="cls-4" x1="27.75" y1="24.75" x2="27.75" y2="24.75"/><line class="cls-4" x1="24.25" y1="55.5" x2="24.25" y2="55.5"/><line class="cls-4" x1="24.25" y1="63.5" x2="24.25" y2="63.5"/><line class="cls-4" x1="18.87" y1="59.5" x2="18.87" y2="59.5"/><line class="cls-4" x1="26.62" y1="37" x2="26.62" y2="37"/><line class="cls-4" x1="61" y1="62" x2="61" y2="62"/><line class="cls-4" x1="4.5" y1="56" x2="4.5" y2="56"/><line class="cls-4" x1="33.75" y1="29.75" x2="33.75" y2="29.75"/><line class="cls-4" x1="33.25" y1="14.75" x2="33.25" y2="14.75"/><line class="cls-4" x1="34.5" y1="8" x2="34.5" y2="8"/><line class="cls-4" x1="49.75" y1="55.75" x2="49.75" y2="55.75"/><line class="cls-4" x1="49" y1="44.75" x2="49" y2="44.75"/><line class="cls-4" x1="62.75" y1="47.25" x2="62.75" y2="47.25"/><line class="cls-4" x1="52.25" y1="17.5" x2="52.25" y2="17.5"/><line class="cls-4" x1="53" y1="19.25" x2="53" y2="19.25"/><line class="cls-4" x1="53.25" y1="10.5" x2="53.25" y2="10.5"/><line class="cls-4" x1="40" y1="19.75" x2="40" y2="19.75"/><line class="cls-4" x1="49" y1="27.25" x2="49" y2="27.25"/><line class="cls-4" x1="59.5" y1="24" x2="59.5" y2="24"/><line class="cls-4" x1="61" y1="31.25" x2="61" y2="31.25"/><line class="cls-4" x1="1" y1="16.25" x2="1" y2="16.25"/><line class="cls-3" x1="-4.5" y1="22.25" x2="-0.18" y2="27.76"/><line class="cls-3" x1="-1.85" y1="20.03" x2="2.47" y2="25.54"/><line class="cls-3" x1="-1.68" y1="53.46" x2="2.25" y2="59.25"/><line class="cls-3" x1="1.88" y1="31.26" x2="-1.81" y2="37.2"/><line class="cls-3" x1="2.29" y1="61.59" x2="-3.23" y2="65.89"/><line class="cls-3" x1="-1.31" y1="10.5" x2="4.88" y2="13.78"/><line class="cls-3" x1="2.48" y1="39.48" x2="-2.75" y2="42"/><line class="cls-3" x1="5.31" y1="42.08" x2="-0.8" y2="45.49"/><line class="cls-3" x1="2.29" y1="-3.66" x2="-3.23" y2="0.64"/><line class="cls-3" x1="4.75" y1="-0.5" x2="-0.78" y2="3.8"/><line class="cls-3" x1="14.22" y1="-2.58" x2="18.5" y2="3.25"/><line class="cls-3" x1="17.05" y1="-5.41" x2="21.33" y2="0.42"/><line class="cls-3" x1="47.19" y1="-2.72" x2="43.5" y2="2.75"/><line class="cls-3" x1="49.93" y1="0.19" x2="44.83" y2="4.98"/><line class="cls-3" x1="53.13" y1="-0.78" x2="55.5" y2="5"/><line class="cls-3" x1="28" y1="-1.5" x2="22.31" y2="2.88"/><line class="cls-3" x1="32" y1="-0.5" x2="25.3" y2="5.54"/><line class="cls-3" x1="38.75" y1="-2.5" x2="39.25" y2="4"/><line class="cls-3" x1="36" y1="-3.25" x2="34.5" y2="3.5"/><line class="cls-3" x1="67.54" y1="-3.66" x2="62.02" y2="0.64"/><line class="cls-3" x1="56.25" y1="-2" x2="59" y2="4.75"/><line class="cls-3" x1="9.25" y1="-0.75" x2="9" y2="0.75"/><line class="cls-3" x1="2.29" y1="-3.66" x2="-3.23" y2="0.64"/></pattern><pattern id="Pattes_d_oiseaux-3" data-name="Pattes d’oiseaux" width="65.25" height="65.25" patternTransform="translate(-251.17 -145.01)" patternUnits="userSpaceOnUse" viewBox="0 0 65.25 65.25"><rect class="cls-2" width="65.25" height="65.25"/><line class="cls-3" x1="67.54" y1="61.59" x2="62.02" y2="65.89"/><line class="cls-3" x1="70" y1="64.75" x2="64.47" y2="69.05"/><line class="cls-3" x1="47.19" y1="62.53" x2="43.5" y2="68"/><line class="cls-3" x1="49.93" y1="65.44" x2="44.83" y2="70.23"/><line class="cls-3" x1="53.13" y1="64.47" x2="55.5" y2="70.25"/><line class="cls-3" x1="56.25" y1="63.25" x2="59" y2="70"/><line class="cls-3" x1="28" y1="63.75" x2="22.31" y2="68.13"/><line class="cls-3" x1="32" y1="64.75" x2="25.3" y2="70.79"/><line class="cls-3" x1="9.25" y1="64.5" x2="9" y2="66"/><line class="cls-3" x1="14.22" y1="62.67" x2="18.5" y2="68.5"/><line class="cls-3" x1="17.05" y1="59.84" x2="21.33" y2="65.67"/><line class="cls-3" x1="38.75" y1="62.75" x2="39.25" y2="69.25"/><line class="cls-3" x1="36" y1="62" x2="34.5" y2="68.75"/><line class="cls-3" x1="2.29" y1="61.59" x2="-3.23" y2="65.89"/><line class="cls-3" x1="4.75" y1="64.75" x2="-0.78" y2="69.05"/><line class="cls-3" x1="22.49" y1="23.04" x2="19.25" y2="29.25"/><line class="cls-3" x1="36.42" y1="43.45" x2="44" y2="45.5"/><line class="cls-3" x1="37.5" y1="40.5" x2="45.25" y2="41.75"/><line class="cls-3" x1="30" y1="60.75" x2="32.75" y2="55.5"/><line class="cls-3" x1="26.5" y1="60.25" x2="29.52" y2="54.46"/><line class="cls-3" x1="46" y1="55.5" x2="41.25" y2="59"/><line class="cls-3" x1="47.25" y1="58" x2="43.5" y2="62"/><line class="cls-3" x1="49.88" y1="46.3" x2="50.78" y2="53.25"/><line class="cls-3" x1="45.98" y1="47.21" x2="47.53" y2="53.75"/><line class="cls-3" x1="14.22" y1="62.67" x2="18.5" y2="68.5"/><line class="cls-3" x1="17.05" y1="59.84" x2="21.33" y2="65.67"/><line class="cls-3" x1="20.53" y1="48.64" x2="23.96" y2="54.74"/><line class="cls-3" x1="24.23" y1="47.13" x2="26.87" y2="53.61"/><line class="cls-3" x1="33" y1="44.5" x2="27.75" y2="47.5"/><line class="cls-3" x1="35.5" y1="47.75" x2="29.75" y2="49.75"/><line class="cls-3" x1="47.19" y1="62.53" x2="43.5" y2="68"/><line class="cls-3" x1="49.93" y1="65.44" x2="44.83" y2="70.23"/><line class="cls-3" x1="53.13" y1="64.47" x2="55.5" y2="70.25"/><line class="cls-3" x1="28" y1="63.75" x2="22.31" y2="68.13"/><line class="cls-3" x1="32" y1="64.75" x2="25.3" y2="70.79"/><line class="cls-3" x1="21.5" y1="58.25" x2="22" y2="59.5"/><line class="cls-3" x1="37.75" y1="60.25" x2="38.75" y2="61.25"/><line class="cls-3" x1="38.75" y1="62.75" x2="39.25" y2="69.25"/><line class="cls-3" x1="36" y1="62" x2="34.5" y2="68.75"/><line class="cls-3" x1="53.28" y1="50" x2="54.53" y2="49.5"/><line class="cls-3" x1="32.5" y1="50.5" x2="32.75" y2="52"/><line class="cls-3" x1="50.5" y1="62" x2="51.75" y2="62"/><line class="cls-3" x1="33.75" y1="60" x2="32.75" y2="61.75"/><line class="cls-3" x1="38" y1="47.25" x2="39.25" y2="46.75"/><line class="cls-3" x1="40.24" y1="55.47" x2="35.81" y2="52.75"/><line class="cls-3" x1="42.97" y1="53.07" x2="36.62" y2="50.14"/><line class="cls-3" x1="35.5" y1="55.75" x2="36.75" y2="56"/><line class="cls-3" x1="42.28" y1="49" x2="43.53" y2="49.25"/><line class="cls-3" x1="18.62" y1="54.25" x2="20.25" y2="53.75"/><line class="cls-3" x1="26.99" y1="8.45" x2="27.12" y2="15.45"/><line class="cls-3" x1="30.99" y1="8.38" x2="30.25" y2="15"/><line class="cls-3" x1="43.64" y1="27.73" x2="50.12" y2="30.38"/><line class="cls-3" x1="45.15" y1="24.03" x2="51.63" y2="26.67"/><line class="cls-3" x1="27.12" y1="23.58" x2="31.89" y2="19.94"/><line class="cls-3" x1="24.09" y1="21.57" x2="30" y2="17.82"/><line class="cls-3" x1="18.5" y1="41.38" x2="11.72" y2="43.13"/><line class="cls-3" x1="19.25" y1="45" x2="12.47" y2="46.76"/><line class="cls-3" x1="19.69" y1="21.19" x2="16.45" y2="27.4"/><line class="cls-3" x1="8.74" y1="9.89" x2="10.07" y2="16.76"/><line class="cls-3" x1="12.66" y1="9.13" x2="14" y2="16"/><line class="cls-3" x1="0.57" y1="6.97" x2="6.75" y2="10.25"/><line class="cls-3" x1="3.5" y1="16.5" x2="2.32" y2="22.49"/><line class="cls-3" x1="7.57" y1="16.38" x2="6.25" y2="23.25"/><line class="cls-3" x1="56.37" y1="44.2" x2="58.78" y2="51.75"/><line class="cls-3" x1="60.53" y1="44.25" x2="61.28" y2="50.75"/><line class="cls-3" x1="53.03" y1="36.46" x2="49.02" y2="42.2"/><line class="cls-3" x1="55.77" y1="37.79" x2="54.03" y2="43.25"/><line class="cls-3" x1="26.95" y1="27.8" x2="27.75" y2="34.75"/><line class="cls-3" x1="29.93" y1="26.99" x2="31.63" y2="33.78"/><line class="cls-3" x1="52.81" y1="4.88" x2="46.46" y2="7.84"/><line class="cls-3" x1="54.25" y1="7.75" x2="48.16" y2="11.46"/><line class="cls-3" x1="17.65" y1="12.48" x2="19.25" y2="19"/><line class="cls-3" x1="19.73" y1="10.2" x2="22.83" y2="16.48"/><line class="cls-3" x1="37.5" y1="14.25" x2="34" y2="20.5"/><line class="cls-3" x1="40.13" y1="15.42" x2="36.19" y2="21.2"/><line class="cls-3" x1="50" y1="15.75" x2="43.75" y2="18.25"/><line class="cls-3" x1="50.5" y1="20.25" x2="44.25" y2="20.5"/><line class="cls-3" x1="56.22" y1="17.42" x2="54.53" y2="23.75"/><line class="cls-3" x1="58.95" y1="19.91" x2="55.47" y2="25.98"/><line class="cls-3" x1="57.14" y1="53.16" x2="50.8" y2="56.13"/><line class="cls-3" x1="58.84" y1="56.78" x2="52.5" y2="59.75"/><line class="cls-3" x1="47.25" y1="37" x2="43" y2="32.25"/><line class="cls-3" x1="44.5" y1="37.75" x2="39.68" y2="33.34"/><line class="cls-3" x1="30.53" y1="39.25" x2="34.5" y2="34.25"/><line class="cls-3" x1="32.93" y1="42.45" x2="37.25" y2="36.5"/><line class="cls-3" x1="22.43" y1="31.52" x2="15.47" y2="30.78"/><line class="cls-3" x1="21.5" y1="34.75" x2="14.66" y2="33.28"/><line class="cls-3" x1="6.75" y1="36.75" x2="12.35" y2="40.95"/><line class="cls-3" x1="9.15" y1="33.55" x2="14.75" y2="37.75"/><line class="cls-3" x1="13.99" y1="49.49" x2="13.42" y2="56.47"/><line class="cls-3" x1="17.75" y1="50" x2="16.81" y2="57.42"/><line class="cls-3" x1="20.17" y1="40.33" x2="25.12" y2="45.28"/><line class="cls-3" x1="23" y1="37.5" x2="27.95" y2="42.45"/><line class="cls-3" x1="8.5" y1="46.25" x2="3.93" y2="50.46"/><line class="cls-3" x1="10.78" y1="48.7" x2="5.25" y2="53"/><line class="cls-3" x1="56.12" y1="14.59" x2="63.1" y2="13.99"/><line class="cls-3" x1="56.25" y1="11.25" x2="62.75" y2="10"/><line class="cls-3" x1="36.25" y1="23.25" x2="37" y2="30.25"/><line class="cls-3" x1="40.25" y1="23.25" x2="39.75" y2="28.75"/><line class="cls-3" x1="11.96" y1="1.11" x2="9.1" y2="6.08"/><line class="cls-3" x1="6.46" y1="32.23" x2="12.21" y2="28.24"/><line class="cls-3" x1="4.18" y1="28.94" x2="9.94" y2="24.95"/><line class="cls-3" x1="4.14" y1="58.23" x2="8.5" y2="62.5"/><line class="cls-3" x1="6.57" y1="56.56" x2="10.5" y2="60"/><line class="cls-3" x1="60.75" y1="22.25" x2="65.07" y2="27.76"/><line class="cls-3" x1="63.4" y1="20.03" x2="67.72" y2="25.54"/><line class="cls-3" x1="58.5" y1="28.63" x2="51.72" y2="30.38"/><line class="cls-3" x1="59.5" y1="32.5" x2="52.72" y2="34.26"/><line class="cls-3" x1="15.75" y1="19.5" x2="8.84" y2="19.07"/><line class="cls-3" x1="16.25" y1="22.25" x2="9.29" y2="23.04"/><line class="cls-3" x1="60.26" y1="55.7" x2="64.19" y2="61.5"/><line class="cls-3" x1="63.57" y1="53.46" x2="67.5" y2="59.25"/><line class="cls-3" x1="63.75" y1="30.75" x2="60.04" y2="35.09"/><line class="cls-3" x1="67.13" y1="31.26" x2="63.44" y2="37.2"/><line class="cls-3" x1="67.54" y1="61.59" x2="62.02" y2="65.89"/><line class="cls-3" x1="56.25" y1="63.25" x2="59" y2="70"/><line class="cls-3" x1="63.94" y1="10.5" x2="70.12" y2="13.78"/><line class="cls-3" x1="16.58" y1="9.47" x2="21" y2="6.75"/><line class="cls-3" x1="13.84" y1="7.07" x2="20.2" y2="4.14"/><line class="cls-3" x1="36.12" y1="8.13" x2="40.87" y2="12.88"/><line class="cls-3" x1="39.27" y1="5.66" x2="43.59" y2="11.17"/><line class="cls-3" x1="67.73" y1="39.48" x2="62.5" y2="42"/><line class="cls-3" x1="70.56" y1="42.08" x2="64.45" y2="45.49"/><line class="cls-3" x1="30" y1="3.75" x2="31.25" y2="4"/><line class="cls-3" x1="29.25" y1="6.75" x2="29" y2="6"/><line class="cls-3" x1="34" y1="12.25" x2="34.75" y2="11.75"/><line class="cls-3" x1="45" y1="10" x2="46.25" y2="10"/><line class="cls-3" x1="51.75" y1="14.5" x2="52.5" y2="15.25"/><line class="cls-3" x1="60.75" y1="18" x2="61.5" y2="17.25"/><line class="cls-3" x1="62.25" y1="5.75" x2="61.75" y2="6.75"/><line class="cls-3" x1="6" y1="13.5" x2="6.75" y2="14"/><line class="cls-3" x1="12.25" y1="30.75" x2="12.25" y2="31.5"/><line class="cls-3" x1="5.5" y1="34.75" x2="4" y2="34.75"/><line class="cls-3" x1="9.75" y1="54.5" x2="10.25" y2="53.25"/><line class="cls-3" x1="18.25" y1="37.75" x2="17.5" y2="36.75"/><line class="cls-3" x1="49.25" y1="34.25" x2="50" y2="33.5"/><line class="cls-3" x1="39.28" y1="37" x2="39.78" y2="38"/><line class="cls-3" x1="25.5" y1="18.75" x2="26.25" y2="18"/><line class="cls-3" x1="23.25" y1="27.75" x2="24.5" y2="28.5"/><line class="cls-3" x1="9.25" y1="64.5" x2="9" y2="66"/><line class="cls-3" x1="38.25" y1="33.75" x2="37.75" y2="32.5"/><line class="cls-3" x1="67.54" y1="-3.66" x2="62.02" y2="0.64"/><line class="cls-3" x1="70" y1="-0.5" x2="64.47" y2="3.8"/><line class="cls-3" x1="47.19" y1="-2.72" x2="43.5" y2="2.75"/><line class="cls-3" x1="49.93" y1="0.19" x2="44.83" y2="4.98"/><line class="cls-3" x1="53.13" y1="-0.78" x2="55.5" y2="5"/><line class="cls-3" x1="56.25" y1="-2" x2="59" y2="4.75"/><line class="cls-3" x1="28" y1="-1.5" x2="22.31" y2="2.88"/><line class="cls-3" x1="32" y1="-0.5" x2="25.3" y2="5.54"/><line class="cls-3" x1="9.25" y1="-0.75" x2="9" y2="0.75"/><line class="cls-3" x1="14.22" y1="-2.58" x2="18.5" y2="3.25"/><line class="cls-3" x1="17.05" y1="-5.41" x2="21.33" y2="0.42"/><line class="cls-3" x1="58.53" y1="59.5" x2="59.03" y2="60.75"/><line class="cls-3" x1="38.75" y1="-2.5" x2="39.25" y2="4"/><line class="cls-3" x1="36" y1="-3.25" x2="34.5" y2="3.5"/><line class="cls-3" x1="45.75" y1="13.75" x2="46.5" y2="14.5"/><line class="cls-3" x1="32.75" y1="25.5" x2="34" y2="25.75"/><line class="cls-3" x1="63.5" y1="51" x2="64.25" y2="50.25"/><line class="cls-3" x1="8.25" y1="1.75" x2="4.85" y2="6.08"/><line class="cls-3" x1="61.5" y1="38.25" x2="62.75" y2="38.5"/><line class="cls-3" x1="23.25" y1="10" x2="24.25" y2="10.75"/><line class="cls-3" x1="36.25" y1="4.5" x2="36.5" y2="5.75"/><line class="cls-3" x1="11" y1="8.5" x2="11.5" y2="7"/><line class="cls-4" x1="3.25" y1="3.75" x2="3.25" y2="3.75"/><line class="cls-4" x1="6.25" y1="7" x2="6.25" y2="7"/><line class="cls-4" x1="13" y1="1.5" x2="13" y2="1.5"/><line class="cls-4" x1="23.25" y1="8.5" x2="23.25" y2="8.5"/><line class="cls-4" x1="17" y1="15.25" x2="17" y2="15.25"/><line class="cls-4" x1="14.5" y1="25" x2="14.5" y2="25"/><line class="cls-4" x1="3.75" y1="24" x2="3.75" y2="24"/><line class="cls-4" x1="20.5" y1="36" x2="20.5" y2="36"/><line class="cls-4" x1="25.75" y1="31.75" x2="25.75" y2="31.75"/><line class="cls-4" x1="33.5" y1="23.25" x2="33.5" y2="23.25"/><line class="cls-4" x1="28" y1="40.25" x2="28" y2="40.25"/><line class="cls-4" x1="32.75" y1="43" x2="32.75" y2="43"/><line class="cls-4" x1="18.75" y1="47.25" x2="18.75" y2="47.25"/><line class="cls-4" x1="42" y1="24.75" x2="42" y2="24.75"/><line class="cls-4" x1="41.75" y1="16.25" x2="41.75" y2="16.25"/><line class="cls-4" x1="58.25" y1="7.5" x2="58.25" y2="7.5"/><line class="cls-4" x1="50.25" y1="4" x2="50.25" y2="4"/><line class="cls-4" x1="61" y1="27.25" x2="61" y2="27.25"/><line class="cls-4" x1="59.5" y1="38.25" x2="59.5" y2="38.25"/><line class="cls-4" x1="54" y1="45" x2="54" y2="45"/><line class="cls-4" x1="57.5" y1="55" x2="57.5" y2="55"/><line class="cls-4" x1="50" y1="59.75" x2="50" y2="59.75"/><line class="cls-4" x1="28.5" y1="61" x2="28.5" y2="61"/><line class="cls-4" x1="39.5" y1="63.5" x2="39.5" y2="63.5"/><line class="cls-4" x1="25.25" y1="15.75" x2="25.25" y2="15.75"/><line class="cls-4" x1="10.75" y1="62.75" x2="10.75" y2="62.75"/><line class="cls-4" x1="0.75" y1="51.5" x2="0.75" y2="51.5"/><line class="cls-4" x1="3.75" y1="44.25" x2="3.75" y2="44.25"/><line class="cls-4" x1="9" y1="40.5" x2="9" y2="40.5"/><line class="cls-4" x1="9.75" y1="44.25" x2="9.75" y2="44.25"/><line class="cls-4" x1="50.75" y1="22.5" x2="50.75" y2="22.5"/><line class="cls-4" x1="48" y1="32.25" x2="48" y2="32.25"/><line class="cls-4" x1="46.25" y1="40.5" x2="46.25" y2="40.5"/><line class="cls-4" x1="27.75" y1="24.75" x2="27.75" y2="24.75"/><line class="cls-4" x1="24.25" y1="55.5" x2="24.25" y2="55.5"/><line class="cls-4" x1="24.25" y1="63.5" x2="24.25" y2="63.5"/><line class="cls-4" x1="18.87" y1="59.5" x2="18.87" y2="59.5"/><line class="cls-4" x1="26.62" y1="37" x2="26.62" y2="37"/><line class="cls-4" x1="61" y1="62" x2="61" y2="62"/><line class="cls-4" x1="4.5" y1="56" x2="4.5" y2="56"/><line class="cls-4" x1="33.75" y1="29.75" x2="33.75" y2="29.75"/><line class="cls-4" x1="33.25" y1="14.75" x2="33.25" y2="14.75"/><line class="cls-4" x1="34.5" y1="8" x2="34.5" y2="8"/><line class="cls-4" x1="49.75" y1="55.75" x2="49.75" y2="55.75"/><line class="cls-4" x1="49" y1="44.75" x2="49" y2="44.75"/><line class="cls-4" x1="62.75" y1="47.25" x2="62.75" y2="47.25"/><line class="cls-4" x1="52.25" y1="17.5" x2="52.25" y2="17.5"/><line class="cls-4" x1="53" y1="19.25" x2="53" y2="19.25"/><line class="cls-4" x1="53.25" y1="10.5" x2="53.25" y2="10.5"/><line class="cls-4" x1="40" y1="19.75" x2="40" y2="19.75"/><line class="cls-4" x1="49" y1="27.25" x2="49" y2="27.25"/><line class="cls-4" x1="59.5" y1="24" x2="59.5" y2="24"/><line class="cls-4" x1="61" y1="31.25" x2="61" y2="31.25"/><line class="cls-4" x1="1" y1="16.25" x2="1" y2="16.25"/><line class="cls-3" x1="-4.5" y1="22.25" x2="-0.18" y2="27.76"/><line class="cls-3" x1="-1.85" y1="20.03" x2="2.47" y2="25.54"/><line class="cls-3" x1="-1.68" y1="53.46" x2="2.25" y2="59.25"/><line class="cls-3" x1="1.88" y1="31.26" x2="-1.81" y2="37.2"/><line class="cls-3" x1="2.29" y1="61.59" x2="-3.23" y2="65.89"/><line class="cls-3" x1="-1.31" y1="10.5" x2="4.88" y2="13.78"/><line class="cls-3" x1="2.48" y1="39.48" x2="-2.75" y2="42"/><line class="cls-3" x1="5.31" y1="42.08" x2="-0.8" y2="45.49"/><line class="cls-3" x1="2.29" y1="-3.66" x2="-3.23" y2="0.64"/><line class="cls-3" x1="4.75" y1="-0.5" x2="-0.78" y2="3.8"/><line class="cls-3" x1="14.22" y1="-2.58" x2="18.5" y2="3.25"/><line class="cls-3" x1="17.05" y1="-5.41" x2="21.33" y2="0.42"/><line class="cls-3" x1="47.19" y1="-2.72" x2="43.5" y2="2.75"/><line class="cls-3" x1="49.93" y1="0.19" x2="44.83" y2="4.98"/><line class="cls-3" x1="53.13" y1="-0.78" x2="55.5" y2="5"/><line class="cls-3" x1="28" y1="-1.5" x2="22.31" y2="2.88"/><line class="cls-3" x1="32" y1="-0.5" x2="25.3" y2="5.54"/><line class="cls-3" x1="38.75" y1="-2.5" x2="39.25" y2="4"/><line class="cls-3" x1="36" y1="-3.25" x2="34.5" y2="3.5"/><line class="cls-3" x1="67.54" y1="-3.66" x2="62.02" y2="0.64"/><line class="cls-3" x1="56.25" y1="-2" x2="59" y2="4.75"/><line class="cls-3" x1="9.25" y1="-0.75" x2="9" y2="0.75"/><line class="cls-3" x1="2.29" y1="-3.66" x2="-3.23" y2="0.64"/></pattern><clipPath id="clip-path-2"><polyline class="cls-1" points="1208.29 378.37 1348.55 378.37 1348.55 332.87 1208.29 332.87"/></clipPath><pattern id="Pattes_d_oiseaux-5" data-name="Pattes d’oiseaux" width="65.25" height="65.25" patternTransform="translate(-143.15 -549.21) scale(1 0.94)" patternUnits="userSpaceOnUse" viewBox="0 0 65.25 65.25"><rect class="cls-2" width="65.25" height="65.25"/><line class="cls-3" x1="67.54" y1="61.59" x2="62.02" y2="65.89"/><line class="cls-3" x1="70" y1="64.75" x2="64.47" y2="69.05"/><line class="cls-3" x1="47.19" y1="62.53" x2="43.5" y2="68"/><line class="cls-3" x1="49.93" y1="65.44" x2="44.83" y2="70.23"/><line class="cls-3" x1="53.13" y1="64.47" x2="55.5" y2="70.25"/><line class="cls-3" x1="56.25" y1="63.25" x2="59" y2="70"/><line class="cls-3" x1="28" y1="63.75" x2="22.31" y2="68.13"/><line class="cls-3" x1="32" y1="64.75" x2="25.3" y2="70.79"/><line class="cls-3" x1="9.25" y1="64.5" x2="9" y2="66"/><line class="cls-3" x1="14.22" y1="62.67" x2="18.5" y2="68.5"/><line class="cls-3" x1="17.05" y1="59.84" x2="21.33" y2="65.67"/><line class="cls-3" x1="38.75" y1="62.75" x2="39.25" y2="69.25"/><line class="cls-3" x1="36" y1="62" x2="34.5" y2="68.75"/><line class="cls-3" x1="2.29" y1="61.59" x2="-3.23" y2="65.89"/><line class="cls-3" x1="4.75" y1="64.75" x2="-0.78" y2="69.05"/><line class="cls-3" x1="22.49" y1="23.04" x2="19.25" y2="29.25"/><line class="cls-3" x1="36.42" y1="43.45" x2="44" y2="45.5"/><line class="cls-3" x1="37.5" y1="40.5" x2="45.25" y2="41.75"/><line class="cls-3" x1="30" y1="60.75" x2="32.75" y2="55.5"/><line class="cls-3" x1="26.5" y1="60.25" x2="29.52" y2="54.46"/><line class="cls-3" x1="46" y1="55.5" x2="41.25" y2="59"/><line class="cls-3" x1="47.25" y1="58" x2="43.5" y2="62"/><line class="cls-3" x1="49.88" y1="46.3" x2="50.78" y2="53.25"/><line class="cls-3" x1="45.98" y1="47.21" x2="47.53" y2="53.75"/><line class="cls-3" x1="14.22" y1="62.67" x2="18.5" y2="68.5"/><line class="cls-3" x1="17.05" y1="59.84" x2="21.33" y2="65.67"/><line class="cls-3" x1="20.53" y1="48.64" x2="23.96" y2="54.74"/><line class="cls-3" x1="24.23" y1="47.13" x2="26.87" y2="53.61"/><line class="cls-3" x1="33" y1="44.5" x2="27.75" y2="47.5"/><line class="cls-3" x1="35.5" y1="47.75" x2="29.75" y2="49.75"/><line class="cls-3" x1="47.19" y1="62.53" x2="43.5" y2="68"/><line class="cls-3" x1="49.93" y1="65.44" x2="44.83" y2="70.23"/><line class="cls-3" x1="53.13" y1="64.47" x2="55.5" y2="70.25"/><line class="cls-3" x1="28" y1="63.75" x2="22.31" y2="68.13"/><line class="cls-3" x1="32" y1="64.75" x2="25.3" y2="70.79"/><line class="cls-3" x1="21.5" y1="58.25" x2="22" y2="59.5"/><line class="cls-3" x1="37.75" y1="60.25" x2="38.75" y2="61.25"/><line class="cls-3" x1="38.75" y1="62.75" x2="39.25" y2="69.25"/><line class="cls-3" x1="36" y1="62" x2="34.5" y2="68.75"/><line class="cls-3" x1="53.28" y1="50" x2="54.53" y2="49.5"/><line class="cls-3" x1="32.5" y1="50.5" x2="32.75" y2="52"/><line class="cls-3" x1="50.5" y1="62" x2="51.75" y2="62"/><line class="cls-3" x1="33.75" y1="60" x2="32.75" y2="61.75"/><line class="cls-3" x1="38" y1="47.25" x2="39.25" y2="46.75"/><line class="cls-3" x1="40.24" y1="55.47" x2="35.81" y2="52.75"/><line class="cls-3" x1="42.97" y1="53.07" x2="36.62" y2="50.14"/><line class="cls-3" x1="35.5" y1="55.75" x2="36.75" y2="56"/><line class="cls-3" x1="42.28" y1="49" x2="43.53" y2="49.25"/><line class="cls-3" x1="18.62" y1="54.25" x2="20.25" y2="53.75"/><line class="cls-3" x1="26.99" y1="8.45" x2="27.12" y2="15.45"/><line class="cls-3" x1="30.99" y1="8.38" x2="30.25" y2="15"/><line class="cls-3" x1="43.64" y1="27.73" x2="50.12" y2="30.38"/><line class="cls-3" x1="45.15" y1="24.03" x2="51.63" y2="26.67"/><line class="cls-3" x1="27.12" y1="23.58" x2="31.89" y2="19.94"/><line class="cls-3" x1="24.09" y1="21.57" x2="30" y2="17.82"/><line class="cls-3" x1="18.5" y1="41.38" x2="11.72" y2="43.13"/><line class="cls-3" x1="19.25" y1="45" x2="12.47" y2="46.76"/><line class="cls-3" x1="19.69" y1="21.19" x2="16.45" y2="27.4"/><line class="cls-3" x1="8.74" y1="9.89" x2="10.07" y2="16.76"/><line class="cls-3" x1="12.66" y1="9.13" x2="14" y2="16"/><line class="cls-3" x1="0.57" y1="6.97" x2="6.75" y2="10.25"/><line class="cls-3" x1="3.5" y1="16.5" x2="2.32" y2="22.49"/><line class="cls-3" x1="7.57" y1="16.38" x2="6.25" y2="23.25"/><line class="cls-3" x1="56.37" y1="44.2" x2="58.78" y2="51.75"/><line class="cls-3" x1="60.53" y1="44.25" x2="61.28" y2="50.75"/><line class="cls-3" x1="53.03" y1="36.46" x2="49.02" y2="42.2"/><line class="cls-3" x1="55.77" y1="37.79" x2="54.03" y2="43.25"/><line class="cls-3" x1="26.95" y1="27.8" x2="27.75" y2="34.75"/><line class="cls-3" x1="29.93" y1="26.99" x2="31.63" y2="33.78"/><line class="cls-3" x1="52.81" y1="4.88" x2="46.46" y2="7.84"/><line class="cls-3" x1="54.25" y1="7.75" x2="48.16" y2="11.46"/><line class="cls-3" x1="17.65" y1="12.48" x2="19.25" y2="19"/><line class="cls-3" x1="19.73" y1="10.2" x2="22.83" y2="16.48"/><line class="cls-3" x1="37.5" y1="14.25" x2="34" y2="20.5"/><line class="cls-3" x1="40.13" y1="15.42" x2="36.19" y2="21.2"/><line class="cls-3" x1="50" y1="15.75" x2="43.75" y2="18.25"/><line class="cls-3" x1="50.5" y1="20.25" x2="44.25" y2="20.5"/><line class="cls-3" x1="56.22" y1="17.42" x2="54.53" y2="23.75"/><line class="cls-3" x1="58.95" y1="19.91" x2="55.47" y2="25.98"/><line class="cls-3" x1="57.14" y1="53.16" x2="50.8" y2="56.13"/><line class="cls-3" x1="58.84" y1="56.78" x2="52.5" y2="59.75"/><line class="cls-3" x1="47.25" y1="37" x2="43" y2="32.25"/><line class="cls-3" x1="44.5" y1="37.75" x2="39.68" y2="33.34"/><line class="cls-3" x1="30.53" y1="39.25" x2="34.5" y2="34.25"/><line class="cls-3" x1="32.93" y1="42.45" x2="37.25" y2="36.5"/><line class="cls-3" x1="22.43" y1="31.52" x2="15.47" y2="30.78"/><line class="cls-3" x1="21.5" y1="34.75" x2="14.66" y2="33.28"/><line class="cls-3" x1="6.75" y1="36.75" x2="12.35" y2="40.95"/><line class="cls-3" x1="9.15" y1="33.55" x2="14.75" y2="37.75"/><line class="cls-3" x1="13.99" y1="49.49" x2="13.42" y2="56.47"/><line class="cls-3" x1="17.75" y1="50" x2="16.81" y2="57.42"/><line class="cls-3" x1="20.17" y1="40.33" x2="25.12" y2="45.28"/><line class="cls-3" x1="23" y1="37.5" x2="27.95" y2="42.45"/><line class="cls-3" x1="8.5" y1="46.25" x2="3.93" y2="50.46"/><line class="cls-3" x1="10.78" y1="48.7" x2="5.25" y2="53"/><line class="cls-3" x1="56.12" y1="14.59" x2="63.1" y2="13.99"/><line class="cls-3" x1="56.25" y1="11.25" x2="62.75" y2="10"/><line class="cls-3" x1="36.25" y1="23.25" x2="37" y2="30.25"/><line class="cls-3" x1="40.25" y1="23.25" x2="39.75" y2="28.75"/><line class="cls-3" x1="11.96" y1="1.11" x2="9.1" y2="6.08"/><line class="cls-3" x1="6.46" y1="32.23" x2="12.21" y2="28.24"/><line class="cls-3" x1="4.18" y1="28.94" x2="9.94" y2="24.95"/><line class="cls-3" x1="4.14" y1="58.23" x2="8.5" y2="62.5"/><line class="cls-3" x1="6.57" y1="56.56" x2="10.5" y2="60"/><line class="cls-3" x1="60.75" y1="22.25" x2="65.07" y2="27.76"/><line class="cls-3" x1="63.4" y1="20.03" x2="67.72" y2="25.54"/><line class="cls-3" x1="58.5" y1="28.63" x2="51.72" y2="30.38"/><line class="cls-3" x1="59.5" y1="32.5" x2="52.72" y2="34.26"/><line class="cls-3" x1="15.75" y1="19.5" x2="8.84" y2="19.07"/><line class="cls-3" x1="16.25" y1="22.25" x2="9.29" y2="23.04"/><line class="cls-3" x1="60.26" y1="55.7" x2="64.19" y2="61.5"/><line class="cls-3" x1="63.57" y1="53.46" x2="67.5" y2="59.25"/><line class="cls-3" x1="63.75" y1="30.75" x2="60.04" y2="35.09"/><line class="cls-3" x1="67.13" y1="31.26" x2="63.44" y2="37.2"/><line class="cls-3" x1="67.54" y1="61.59" x2="62.02" y2="65.89"/><line class="cls-3" x1="56.25" y1="63.25" x2="59" y2="70"/><line class="cls-3" x1="63.94" y1="10.5" x2="70.12" y2="13.78"/><line class="cls-3" x1="16.58" y1="9.47" x2="21" y2="6.75"/><line class="cls-3" x1="13.84" y1="7.07" x2="20.2" y2="4.14"/><line class="cls-3" x1="36.12" y1="8.13" x2="40.87" y2="12.88"/><line class="cls-3" x1="39.27" y1="5.66" x2="43.59" y2="11.17"/><line class="cls-3" x1="67.73" y1="39.48" x2="62.5" y2="42"/><line class="cls-3" x1="70.56" y1="42.08" x2="64.45" y2="45.49"/><line class="cls-3" x1="30" y1="3.75" x2="31.25" y2="4"/><line class="cls-3" x1="29.25" y1="6.75" x2="29" y2="6"/><line class="cls-3" x1="34" y1="12.25" x2="34.75" y2="11.75"/><line class="cls-3" x1="45" y1="10" x2="46.25" y2="10"/><line class="cls-3" x1="51.75" y1="14.5" x2="52.5" y2="15.25"/><line class="cls-3" x1="60.75" y1="18" x2="61.5" y2="17.25"/><line class="cls-3" x1="62.25" y1="5.75" x2="61.75" y2="6.75"/><line class="cls-3" x1="6" y1="13.5" x2="6.75" y2="14"/><line class="cls-3" x1="12.25" y1="30.75" x2="12.25" y2="31.5"/><line class="cls-3" x1="5.5" y1="34.75" x2="4" y2="34.75"/><line class="cls-3" x1="9.75" y1="54.5" x2="10.25" y2="53.25"/><line class="cls-3" x1="18.25" y1="37.75" x2="17.5" y2="36.75"/><line class="cls-3" x1="49.25" y1="34.25" x2="50" y2="33.5"/><line class="cls-3" x1="39.28" y1="37" x2="39.78" y2="38"/><line class="cls-3" x1="25.5" y1="18.75" x2="26.25" y2="18"/><line class="cls-3" x1="23.25" y1="27.75" x2="24.5" y2="28.5"/><line class="cls-3" x1="9.25" y1="64.5" x2="9" y2="66"/><line class="cls-3" x1="38.25" y1="33.75" x2="37.75" y2="32.5"/><line class="cls-3" x1="67.54" y1="-3.66" x2="62.02" y2="0.64"/><line class="cls-3" x1="70" y1="-0.5" x2="64.47" y2="3.8"/><line class="cls-3" x1="47.19" y1="-2.72" x2="43.5" y2="2.75"/><line class="cls-3" x1="49.93" y1="0.19" x2="44.83" y2="4.98"/><line class="cls-3" x1="53.13" y1="-0.78" x2="55.5" y2="5"/><line class="cls-3" x1="56.25" y1="-2" x2="59" y2="4.75"/><line class="cls-3" x1="28" y1="-1.5" x2="22.31" y2="2.88"/><line class="cls-3" x1="32" y1="-0.5" x2="25.3" y2="5.54"/><line class="cls-3" x1="9.25" y1="-0.75" x2="9" y2="0.75"/><line class="cls-3" x1="14.22" y1="-2.58" x2="18.5" y2="3.25"/><line class="cls-3" x1="17.05" y1="-5.41" x2="21.33" y2="0.42"/><line class="cls-3" x1="58.53" y1="59.5" x2="59.03" y2="60.75"/><line class="cls-3" x1="38.75" y1="-2.5" x2="39.25" y2="4"/><line class="cls-3" x1="36" y1="-3.25" x2="34.5" y2="3.5"/><line class="cls-3" x1="45.75" y1="13.75" x2="46.5" y2="14.5"/><line class="cls-3" x1="32.75" y1="25.5" x2="34" y2="25.75"/><line class="cls-3" x1="63.5" y1="51" x2="64.25" y2="50.25"/><line class="cls-3" x1="8.25" y1="1.75" x2="4.85" y2="6.08"/><line class="cls-3" x1="61.5" y1="38.25" x2="62.75" y2="38.5"/><line class="cls-3" x1="23.25" y1="10" x2="24.25" y2="10.75"/><line class="cls-3" x1="36.25" y1="4.5" x2="36.5" y2="5.75"/><line class="cls-3" x1="11" y1="8.5" x2="11.5" y2="7"/><line class="cls-4" x1="3.25" y1="3.75" x2="3.25" y2="3.75"/><line class="cls-4" x1="6.25" y1="7" x2="6.25" y2="7"/><line class="cls-4" x1="13" y1="1.5" x2="13" y2="1.5"/><line class="cls-4" x1="23.25" y1="8.5" x2="23.25" y2="8.5"/><line class="cls-4" x1="17" y1="15.25" x2="17" y2="15.25"/><line class="cls-4" x1="14.5" y1="25" x2="14.5" y2="25"/><line class="cls-4" x1="3.75" y1="24" x2="3.75" y2="24"/><line class="cls-4" x1="20.5" y1="36" x2="20.5" y2="36"/><line class="cls-4" x1="25.75" y1="31.75" x2="25.75" y2="31.75"/><line class="cls-4" x1="33.5" y1="23.25" x2="33.5" y2="23.25"/><line class="cls-4" x1="28" y1="40.25" x2="28" y2="40.25"/><line class="cls-4" x1="32.75" y1="43" x2="32.75" y2="43"/><line class="cls-4" x1="18.75" y1="47.25" x2="18.75" y2="47.25"/><line class="cls-4" x1="42" y1="24.75" x2="42" y2="24.75"/><line class="cls-4" x1="41.75" y1="16.25" x2="41.75" y2="16.25"/><line class="cls-4" x1="58.25" y1="7.5" x2="58.25" y2="7.5"/><line class="cls-4" x1="50.25" y1="4" x2="50.25" y2="4"/><line class="cls-4" x1="61" y1="27.25" x2="61" y2="27.25"/><line class="cls-4" x1="59.5" y1="38.25" x2="59.5" y2="38.25"/><line class="cls-4" x1="54" y1="45" x2="54" y2="45"/><line class="cls-4" x1="57.5" y1="55" x2="57.5" y2="55"/><line class="cls-4" x1="50" y1="59.75" x2="50" y2="59.75"/><line class="cls-4" x1="28.5" y1="61" x2="28.5" y2="61"/><line class="cls-4" x1="39.5" y1="63.5" x2="39.5" y2="63.5"/><line class="cls-4" x1="25.25" y1="15.75" x2="25.25" y2="15.75"/><line class="cls-4" x1="10.75" y1="62.75" x2="10.75" y2="62.75"/><line class="cls-4" x1="0.75" y1="51.5" x2="0.75" y2="51.5"/><line class="cls-4" x1="3.75" y1="44.25" x2="3.75" y2="44.25"/><line class="cls-4" x1="9" y1="40.5" x2="9" y2="40.5"/><line class="cls-4" x1="9.75" y1="44.25" x2="9.75" y2="44.25"/><line class="cls-4" x1="50.75" y1="22.5" x2="50.75" y2="22.5"/><line class="cls-4" x1="48" y1="32.25" x2="48" y2="32.25"/><line class="cls-4" x1="46.25" y1="40.5" x2="46.25" y2="40.5"/><line class="cls-4" x1="27.75" y1="24.75" x2="27.75" y2="24.75"/><line class="cls-4" x1="24.25" y1="55.5" x2="24.25" y2="55.5"/><line class="cls-4" x1="24.25" y1="63.5" x2="24.25" y2="63.5"/><line class="cls-4" x1="18.87" y1="59.5" x2="18.87" y2="59.5"/><line class="cls-4" x1="26.62" y1="37" x2="26.62" y2="37"/><line class="cls-4" x1="61" y1="62" x2="61" y2="62"/><line class="cls-4" x1="4.5" y1="56" x2="4.5" y2="56"/><line class="cls-4" x1="33.75" y1="29.75" x2="33.75" y2="29.75"/><line class="cls-4" x1="33.25" y1="14.75" x2="33.25" y2="14.75"/><line class="cls-4" x1="34.5" y1="8" x2="34.5" y2="8"/><line class="cls-4" x1="49.75" y1="55.75" x2="49.75" y2="55.75"/><line class="cls-4" x1="49" y1="44.75" x2="49" y2="44.75"/><line class="cls-4" x1="62.75" y1="47.25" x2="62.75" y2="47.25"/><line class="cls-4" x1="52.25" y1="17.5" x2="52.25" y2="17.5"/><line class="cls-4" x1="53" y1="19.25" x2="53" y2="19.25"/><line class="cls-4" x1="53.25" y1="10.5" x2="53.25" y2="10.5"/><line class="cls-4" x1="40" y1="19.75" x2="40" y2="19.75"/><line class="cls-4" x1="49" y1="27.25" x2="49" y2="27.25"/><line class="cls-4" x1="59.5" y1="24" x2="59.5" y2="24"/><line class="cls-4" x1="61" y1="31.25" x2="61" y2="31.25"/><line class="cls-4" x1="1" y1="16.25" x2="1" y2="16.25"/><line class="cls-3" x1="-4.5" y1="22.25" x2="-0.18" y2="27.76"/><line class="cls-3" x1="-1.85" y1="20.03" x2="2.47" y2="25.54"/><line class="cls-3" x1="-1.68" y1="53.46" x2="2.25" y2="59.25"/><line class="cls-3" x1="1.88" y1="31.26" x2="-1.81" y2="37.2"/><line class="cls-3" x1="2.29" y1="61.59" x2="-3.23" y2="65.89"/><line class="cls-3" x1="-1.31" y1="10.5" x2="4.88" y2="13.78"/><line class="cls-3" x1="2.48" y1="39.48" x2="-2.75" y2="42"/><line class="cls-3" x1="5.31" y1="42.08" x2="-0.8" y2="45.49"/><line class="cls-3" x1="2.29" y1="-3.66" x2="-3.23" y2="0.64"/><line class="cls-3" x1="4.75" y1="-0.5" x2="-0.78" y2="3.8"/><line class="cls-3" x1="14.22" y1="-2.58" x2="18.5" y2="3.25"/><line class="cls-3" x1="17.05" y1="-5.41" x2="21.33" y2="0.42"/><line class="cls-3" x1="47.19" y1="-2.72" x2="43.5" y2="2.75"/><line class="cls-3" x1="49.93" y1="0.19" x2="44.83" y2="4.98"/><line class="cls-3" x1="53.13" y1="-0.78" x2="55.5" y2="5"/><line class="cls-3" x1="28" y1="-1.5" x2="22.31" y2="2.88"/><line class="cls-3" x1="32" y1="-0.5" x2="25.3" y2="5.54"/><line class="cls-3" x1="38.75" y1="-2.5" x2="39.25" y2="4"/><line class="cls-3" x1="36" y1="-3.25" x2="34.5" y2="3.5"/><line class="cls-3" x1="67.54" y1="-3.66" x2="62.02" y2="0.64"/><line class="cls-3" x1="56.25" y1="-2" x2="59" y2="4.75"/><line class="cls-3" x1="9.25" y1="-0.75" x2="9" y2="0.75"/><line class="cls-3" x1="2.29" y1="-3.66" x2="-3.23" y2="0.64"/></pattern><pattern id="Pattes_d_oiseaux-7" data-name="Pattes d’oiseaux" width="65.25" height="65.25" patternTransform="translate(-143.15 -144.94)" patternUnits="userSpaceOnUse" viewBox="0 0 65.25 65.25"><rect class="cls-2" width="65.25" height="65.25"/><line class="cls-3" x1="67.54" y1="61.59" x2="62.02" y2="65.89"/><line class="cls-3" x1="70" y1="64.75" x2="64.47" y2="69.05"/><line class="cls-3" x1="47.19" y1="62.53" x2="43.5" y2="68"/><line class="cls-3" x1="49.93" y1="65.44" x2="44.83" y2="70.23"/><line class="cls-3" x1="53.13" y1="64.47" x2="55.5" y2="70.25"/><line class="cls-3" x1="56.25" y1="63.25" x2="59" y2="70"/><line class="cls-3" x1="28" y1="63.75" x2="22.31" y2="68.13"/><line class="cls-3" x1="32" y1="64.75" x2="25.3" y2="70.79"/><line class="cls-3" x1="9.25" y1="64.5" x2="9" y2="66"/><line class="cls-3" x1="14.22" y1="62.67" x2="18.5" y2="68.5"/><line class="cls-3" x1="17.05" y1="59.84" x2="21.33" y2="65.67"/><line class="cls-3" x1="38.75" y1="62.75" x2="39.25" y2="69.25"/><line class="cls-3" x1="36" y1="62" x2="34.5" y2="68.75"/><line class="cls-3" x1="2.29" y1="61.59" x2="-3.23" y2="65.89"/><line class="cls-3" x1="4.75" y1="64.75" x2="-0.78" y2="69.05"/><line class="cls-3" x1="22.49" y1="23.04" x2="19.25" y2="29.25"/><line class="cls-3" x1="36.42" y1="43.45" x2="44" y2="45.5"/><line class="cls-3" x1="37.5" y1="40.5" x2="45.25" y2="41.75"/><line class="cls-3" x1="30" y1="60.75" x2="32.75" y2="55.5"/><line class="cls-3" x1="26.5" y1="60.25" x2="29.52" y2="54.46"/><line class="cls-3" x1="46" y1="55.5" x2="41.25" y2="59"/><line class="cls-3" x1="47.25" y1="58" x2="43.5" y2="62"/><line class="cls-3" x1="49.88" y1="46.3" x2="50.78" y2="53.25"/><line class="cls-3" x1="45.98" y1="47.21" x2="47.53" y2="53.75"/><line class="cls-3" x1="14.22" y1="62.67" x2="18.5" y2="68.5"/><line class="cls-3" x1="17.05" y1="59.84" x2="21.33" y2="65.67"/><line class="cls-3" x1="20.53" y1="48.64" x2="23.96" y2="54.74"/><line class="cls-3" x1="24.23" y1="47.13" x2="26.87" y2="53.61"/><line class="cls-3" x1="33" y1="44.5" x2="27.75" y2="47.5"/><line class="cls-3" x1="35.5" y1="47.75" x2="29.75" y2="49.75"/><line class="cls-3" x1="47.19" y1="62.53" x2="43.5" y2="68"/><line class="cls-3" x1="49.93" y1="65.44" x2="44.83" y2="70.23"/><line class="cls-3" x1="53.13" y1="64.47" x2="55.5" y2="70.25"/><line class="cls-3" x1="28" y1="63.75" x2="22.31" y2="68.13"/><line class="cls-3" x1="32" y1="64.75" x2="25.3" y2="70.79"/><line class="cls-3" x1="21.5" y1="58.25" x2="22" y2="59.5"/><line class="cls-3" x1="37.75" y1="60.25" x2="38.75" y2="61.25"/><line class="cls-3" x1="38.75" y1="62.75" x2="39.25" y2="69.25"/><line class="cls-3" x1="36" y1="62" x2="34.5" y2="68.75"/><line class="cls-3" x1="53.28" y1="50" x2="54.53" y2="49.5"/><line class="cls-3" x1="32.5" y1="50.5" x2="32.75" y2="52"/><line class="cls-3" x1="50.5" y1="62" x2="51.75" y2="62"/><line class="cls-3" x1="33.75" y1="60" x2="32.75" y2="61.75"/><line class="cls-3" x1="38" y1="47.25" x2="39.25" y2="46.75"/><line class="cls-3" x1="40.24" y1="55.47" x2="35.81" y2="52.75"/><line class="cls-3" x1="42.97" y1="53.07" x2="36.62" y2="50.14"/><line class="cls-3" x1="35.5" y1="55.75" x2="36.75" y2="56"/><line class="cls-3" x1="42.28" y1="49" x2="43.53" y2="49.25"/><line class="cls-3" x1="18.62" y1="54.25" x2="20.25" y2="53.75"/><line class="cls-3" x1="26.99" y1="8.45" x2="27.12" y2="15.45"/><line class="cls-3" x1="30.99" y1="8.38" x2="30.25" y2="15"/><line class="cls-3" x1="43.64" y1="27.73" x2="50.12" y2="30.38"/><line class="cls-3" x1="45.15" y1="24.03" x2="51.63" y2="26.67"/><line class="cls-3" x1="27.12" y1="23.58" x2="31.89" y2="19.94"/><line class="cls-3" x1="24.09" y1="21.57" x2="30" y2="17.82"/><line class="cls-3" x1="18.5" y1="41.38" x2="11.72" y2="43.13"/><line class="cls-3" x1="19.25" y1="45" x2="12.47" y2="46.76"/><line class="cls-3" x1="19.69" y1="21.19" x2="16.45" y2="27.4"/><line class="cls-3" x1="8.74" y1="9.89" x2="10.07" y2="16.76"/><line class="cls-3" x1="12.66" y1="9.13" x2="14" y2="16"/><line class="cls-3" x1="0.57" y1="6.97" x2="6.75" y2="10.25"/><line class="cls-3" x1="3.5" y1="16.5" x2="2.32" y2="22.49"/><line class="cls-3" x1="7.57" y1="16.38" x2="6.25" y2="23.25"/><line class="cls-3" x1="56.37" y1="44.2" x2="58.78" y2="51.75"/><line class="cls-3" x1="60.53" y1="44.25" x2="61.28" y2="50.75"/><line class="cls-3" x1="53.03" y1="36.46" x2="49.02" y2="42.2"/><line class="cls-3" x1="55.77" y1="37.79" x2="54.03" y2="43.25"/><line class="cls-3" x1="26.95" y1="27.8" x2="27.75" y2="34.75"/><line class="cls-3" x1="29.93" y1="26.99" x2="31.63" y2="33.78"/><line class="cls-3" x1="52.81" y1="4.88" x2="46.46" y2="7.84"/><line class="cls-3" x1="54.25" y1="7.75" x2="48.16" y2="11.46"/><line class="cls-3" x1="17.65" y1="12.48" x2="19.25" y2="19"/><line class="cls-3" x1="19.73" y1="10.2" x2="22.83" y2="16.48"/><line class="cls-3" x1="37.5" y1="14.25" x2="34" y2="20.5"/><line class="cls-3" x1="40.13" y1="15.42" x2="36.19" y2="21.2"/><line class="cls-3" x1="50" y1="15.75" x2="43.75" y2="18.25"/><line class="cls-3" x1="50.5" y1="20.25" x2="44.25" y2="20.5"/><line class="cls-3" x1="56.22" y1="17.42" x2="54.53" y2="23.75"/><line class="cls-3" x1="58.95" y1="19.91" x2="55.47" y2="25.98"/><line class="cls-3" x1="57.14" y1="53.16" x2="50.8" y2="56.13"/><line class="cls-3" x1="58.84" y1="56.78" x2="52.5" y2="59.75"/><line class="cls-3" x1="47.25" y1="37" x2="43" y2="32.25"/><line class="cls-3" x1="44.5" y1="37.75" x2="39.68" y2="33.34"/><line class="cls-3" x1="30.53" y1="39.25" x2="34.5" y2="34.25"/><line class="cls-3" x1="32.93" y1="42.45" x2="37.25" y2="36.5"/><line class="cls-3" x1="22.43" y1="31.52" x2="15.47" y2="30.78"/><line class="cls-3" x1="21.5" y1="34.75" x2="14.66" y2="33.28"/><line class="cls-3" x1="6.75" y1="36.75" x2="12.35" y2="40.95"/><line class="cls-3" x1="9.15" y1="33.55" x2="14.75" y2="37.75"/><line class="cls-3" x1="13.99" y1="49.49" x2="13.42" y2="56.47"/><line class="cls-3" x1="17.75" y1="50" x2="16.81" y2="57.42"/><line class="cls-3" x1="20.17" y1="40.33" x2="25.12" y2="45.28"/><line class="cls-3" x1="23" y1="37.5" x2="27.95" y2="42.45"/><line class="cls-3" x1="8.5" y1="46.25" x2="3.93" y2="50.46"/><line class="cls-3" x1="10.78" y1="48.7" x2="5.25" y2="53"/><line class="cls-3" x1="56.12" y1="14.59" x2="63.1" y2="13.99"/><line class="cls-3" x1="56.25" y1="11.25" x2="62.75" y2="10"/><line class="cls-3" x1="36.25" y1="23.25" x2="37" y2="30.25"/><line class="cls-3" x1="40.25" y1="23.25" x2="39.75" y2="28.75"/><line class="cls-3" x1="11.96" y1="1.11" x2="9.1" y2="6.08"/><line class="cls-3" x1="6.46" y1="32.23" x2="12.21" y2="28.24"/><line class="cls-3" x1="4.18" y1="28.94" x2="9.94" y2="24.95"/><line class="cls-3" x1="4.14" y1="58.23" x2="8.5" y2="62.5"/><line class="cls-3" x1="6.57" y1="56.56" x2="10.5" y2="60"/><line class="cls-3" x1="60.75" y1="22.25" x2="65.07" y2="27.76"/><line class="cls-3" x1="63.4" y1="20.03" x2="67.72" y2="25.54"/><line class="cls-3" x1="58.5" y1="28.63" x2="51.72" y2="30.38"/><line class="cls-3" x1="59.5" y1="32.5" x2="52.72" y2="34.26"/><line class="cls-3" x1="15.75" y1="19.5" x2="8.84" y2="19.07"/><line class="cls-3" x1="16.25" y1="22.25" x2="9.29" y2="23.04"/><line class="cls-3" x1="60.26" y1="55.7" x2="64.19" y2="61.5"/><line class="cls-3" x1="63.57" y1="53.46" x2="67.5" y2="59.25"/><line class="cls-3" x1="63.75" y1="30.75" x2="60.04" y2="35.09"/><line class="cls-3" x1="67.13" y1="31.26" x2="63.44" y2="37.2"/><line class="cls-3" x1="67.54" y1="61.59" x2="62.02" y2="65.89"/><line class="cls-3" x1="56.25" y1="63.25" x2="59" y2="70"/><line class="cls-3" x1="63.94" y1="10.5" x2="70.12" y2="13.78"/><line class="cls-3" x1="16.58" y1="9.47" x2="21" y2="6.75"/><line class="cls-3" x1="13.84" y1="7.07" x2="20.2" y2="4.14"/><line class="cls-3" x1="36.12" y1="8.13" x2="40.87" y2="12.88"/><line class="cls-3" x1="39.27" y1="5.66" x2="43.59" y2="11.17"/><line class="cls-3" x1="67.73" y1="39.48" x2="62.5" y2="42"/><line class="cls-3" x1="70.56" y1="42.08" x2="64.45" y2="45.49"/><line class="cls-3" x1="30" y1="3.75" x2="31.25" y2="4"/><line class="cls-3" x1="29.25" y1="6.75" x2="29" y2="6"/><line class="cls-3" x1="34" y1="12.25" x2="34.75" y2="11.75"/><line class="cls-3" x1="45" y1="10" x2="46.25" y2="10"/><line class="cls-3" x1="51.75" y1="14.5" x2="52.5" y2="15.25"/><line class="cls-3" x1="60.75" y1="18" x2="61.5" y2="17.25"/><line class="cls-3" x1="62.25" y1="5.75" x2="61.75" y2="6.75"/><line class="cls-3" x1="6" y1="13.5" x2="6.75" y2="14"/><line class="cls-3" x1="12.25" y1="30.75" x2="12.25" y2="31.5"/><line class="cls-3" x1="5.5" y1="34.75" x2="4" y2="34.75"/><line class="cls-3" x1="9.75" y1="54.5" x2="10.25" y2="53.25"/><line class="cls-3" x1="18.25" y1="37.75" x2="17.5" y2="36.75"/><line class="cls-3" x1="49.25" y1="34.25" x2="50" y2="33.5"/><line class="cls-3" x1="39.28" y1="37" x2="39.78" y2="38"/><line class="cls-3" x1="25.5" y1="18.75" x2="26.25" y2="18"/><line class="cls-3" x1="23.25" y1="27.75" x2="24.5" y2="28.5"/><line class="cls-3" x1="9.25" y1="64.5" x2="9" y2="66"/><line class="cls-3" x1="38.25" y1="33.75" x2="37.75" y2="32.5"/><line class="cls-3" x1="67.54" y1="-3.66" x2="62.02" y2="0.64"/><line class="cls-3" x1="70" y1="-0.5" x2="64.47" y2="3.8"/><line class="cls-3" x1="47.19" y1="-2.72" x2="43.5" y2="2.75"/><line class="cls-3" x1="49.93" y1="0.19" x2="44.83" y2="4.98"/><line class="cls-3" x1="53.13" y1="-0.78" x2="55.5" y2="5"/><line class="cls-3" x1="56.25" y1="-2" x2="59" y2="4.75"/><line class="cls-3" x1="28" y1="-1.5" x2="22.31" y2="2.88"/><line class="cls-3" x1="32" y1="-0.5" x2="25.3" y2="5.54"/><line class="cls-3" x1="9.25" y1="-0.75" x2="9" y2="0.75"/><line class="cls-3" x1="14.22" y1="-2.58" x2="18.5" y2="3.25"/><line class="cls-3" x1="17.05" y1="-5.41" x2="21.33" y2="0.42"/><line class="cls-3" x1="58.53" y1="59.5" x2="59.03" y2="60.75"/><line class="cls-3" x1="38.75" y1="-2.5" x2="39.25" y2="4"/><line class="cls-3" x1="36" y1="-3.25" x2="34.5" y2="3.5"/><line class="cls-3" x1="45.75" y1="13.75" x2="46.5" y2="14.5"/><line class="cls-3" x1="32.75" y1="25.5" x2="34" y2="25.75"/><line class="cls-3" x1="63.5" y1="51" x2="64.25" y2="50.25"/><line class="cls-3" x1="8.25" y1="1.75" x2="4.85" y2="6.08"/><line class="cls-3" x1="61.5" y1="38.25" x2="62.75" y2="38.5"/><line class="cls-3" x1="23.25" y1="10" x2="24.25" y2="10.75"/><line class="cls-3" x1="36.25" y1="4.5" x2="36.5" y2="5.75"/><line class="cls-3" x1="11" y1="8.5" x2="11.5" y2="7"/><line class="cls-4" x1="3.25" y1="3.75" x2="3.25" y2="3.75"/><line class="cls-4" x1="6.25" y1="7" x2="6.25" y2="7"/><line class="cls-4" x1="13" y1="1.5" x2="13" y2="1.5"/><line class="cls-4" x1="23.25" y1="8.5" x2="23.25" y2="8.5"/><line class="cls-4" x1="17" y1="15.25" x2="17" y2="15.25"/><line class="cls-4" x1="14.5" y1="25" x2="14.5" y2="25"/><line class="cls-4" x1="3.75" y1="24" x2="3.75" y2="24"/><line class="cls-4" x1="20.5" y1="36" x2="20.5" y2="36"/><line class="cls-4" x1="25.75" y1="31.75" x2="25.75" y2="31.75"/><line class="cls-4" x1="33.5" y1="23.25" x2="33.5" y2="23.25"/><line class="cls-4" x1="28" y1="40.25" x2="28" y2="40.25"/><line class="cls-4" x1="32.75" y1="43" x2="32.75" y2="43"/><line class="cls-4" x1="18.75" y1="47.25" x2="18.75" y2="47.25"/><line class="cls-4" x1="42" y1="24.75" x2="42" y2="24.75"/><line class="cls-4" x1="41.75" y1="16.25" x2="41.75" y2="16.25"/><line class="cls-4" x1="58.25" y1="7.5" x2="58.25" y2="7.5"/><line class="cls-4" x1="50.25" y1="4" x2="50.25" y2="4"/><line class="cls-4" x1="61" y1="27.25" x2="61" y2="27.25"/><line class="cls-4" x1="59.5" y1="38.25" x2="59.5" y2="38.25"/><line class="cls-4" x1="54" y1="45" x2="54" y2="45"/><line class="cls-4" x1="57.5" y1="55" x2="57.5" y2="55"/><line class="cls-4" x1="50" y1="59.75" x2="50" y2="59.75"/><line class="cls-4" x1="28.5" y1="61" x2="28.5" y2="61"/><line class="cls-4" x1="39.5" y1="63.5" x2="39.5" y2="63.5"/><line class="cls-4" x1="25.25" y1="15.75" x2="25.25" y2="15.75"/><line class="cls-4" x1="10.75" y1="62.75" x2="10.75" y2="62.75"/><line class="cls-4" x1="0.75" y1="51.5" x2="0.75" y2="51.5"/><line class="cls-4" x1="3.75" y1="44.25" x2="3.75" y2="44.25"/><line class="cls-4" x1="9" y1="40.5" x2="9" y2="40.5"/><line class="cls-4" x1="9.75" y1="44.25" x2="9.75" y2="44.25"/><line class="cls-4" x1="50.75" y1="22.5" x2="50.75" y2="22.5"/><line class="cls-4" x1="48" y1="32.25" x2="48" y2="32.25"/><line class="cls-4" x1="46.25" y1="40.5" x2="46.25" y2="40.5"/><line class="cls-4" x1="27.75" y1="24.75" x2="27.75" y2="24.75"/><line class="cls-4" x1="24.25" y1="55.5" x2="24.25" y2="55.5"/><line class="cls-4" x1="24.25" y1="63.5" x2="24.25" y2="63.5"/><line class="cls-4" x1="18.87" y1="59.5" x2="18.87" y2="59.5"/><line class="cls-4" x1="26.62" y1="37" x2="26.62" y2="37"/><line class="cls-4" x1="61" y1="62" x2="61" y2="62"/><line class="cls-4" x1="4.5" y1="56" x2="4.5" y2="56"/><line class="cls-4" x1="33.75" y1="29.75" x2="33.75" y2="29.75"/><line class="cls-4" x1="33.25" y1="14.75" x2="33.25" y2="14.75"/><line class="cls-4" x1="34.5" y1="8" x2="34.5" y2="8"/><line class="cls-4" x1="49.75" y1="55.75" x2="49.75" y2="55.75"/><line class="cls-4" x1="49" y1="44.75" x2="49" y2="44.75"/><line class="cls-4" x1="62.75" y1="47.25" x2="62.75" y2="47.25"/><line class="cls-4" x1="52.25" y1="17.5" x2="52.25" y2="17.5"/><line class="cls-4" x1="53" y1="19.25" x2="53" y2="19.25"/><line class="cls-4" x1="53.25" y1="10.5" x2="53.25" y2="10.5"/><line class="cls-4" x1="40" y1="19.75" x2="40" y2="19.75"/><line class="cls-4" x1="49" y1="27.25" x2="49" y2="27.25"/><line class="cls-4" x1="59.5" y1="24" x2="59.5" y2="24"/><line class="cls-4" x1="61" y1="31.25" x2="61" y2="31.25"/><line class="cls-4" x1="1" y1="16.25" x2="1" y2="16.25"/><line class="cls-3" x1="-4.5" y1="22.25" x2="-0.18" y2="27.76"/><line class="cls-3" x1="-1.85" y1="20.03" x2="2.47" y2="25.54"/><line class="cls-3" x1="-1.68" y1="53.46" x2="2.25" y2="59.25"/><line class="cls-3" x1="1.88" y1="31.26" x2="-1.81" y2="37.2"/><line class="cls-3" x1="2.29" y1="61.59" x2="-3.23" y2="65.89"/><line class="cls-3" x1="-1.31" y1="10.5" x2="4.88" y2="13.78"/><line class="cls-3" x1="2.48" y1="39.48" x2="-2.75" y2="42"/><line class="cls-3" x1="5.31" y1="42.08" x2="-0.8" y2="45.49"/><line class="cls-3" x1="2.29" y1="-3.66" x2="-3.23" y2="0.64"/><line class="cls-3" x1="4.75" y1="-0.5" x2="-0.78" y2="3.8"/><line class="cls-3" x1="14.22" y1="-2.58" x2="18.5" y2="3.25"/><line class="cls-3" x1="17.05" y1="-5.41" x2="21.33" y2="0.42"/><line class="cls-3" x1="47.19" y1="-2.72" x2="43.5" y2="2.75"/><line class="cls-3" x1="49.93" y1="0.19" x2="44.83" y2="4.98"/><line class="cls-3" x1="53.13" y1="-0.78" x2="55.5" y2="5"/><line class="cls-3" x1="28" y1="-1.5" x2="22.31" y2="2.88"/><line class="cls-3" x1="32" y1="-0.5" x2="25.3" y2="5.54"/><line class="cls-3" x1="38.75" y1="-2.5" x2="39.25" y2="4"/><line class="cls-3" x1="36" y1="-3.25" x2="34.5" y2="3.5"/><line class="cls-3" x1="67.54" y1="-3.66" x2="62.02" y2="0.64"/><line class="cls-3" x1="56.25" y1="-2" x2="59" y2="4.75"/><line class="cls-3" x1="9.25" y1="-0.75" x2="9" y2="0.75"/><line class="cls-3" x1="2.29" y1="-3.66" x2="-3.23" y2="0.64"/></pattern></defs><path class="cls-5" d="M1348.63,394.28H1208.27v-16h140.36Z"/><path class="cls-5" d="M1348.58,332.75H1208.21V317.92h140.37Z"/><path class="cls-5" d="M261.83,394.33H121.47v-16H261.83Z"/><path class="cls-5" d="M261.78,332.8H121.42V318H261.78Z"/><g id="LINE"><line class="cls-6" x1="121.42" y1="333.53" x2="121.42" y2="342.01"/><polyline class="cls-6" points="121.42 378.52 261.89 378.52 261.89 333.53"/></g><g class="cls-7"><path class="cls-8" d="M119.79,365.29,109,346.83,98.32,365.29c-1,7,4.66,12.44,9.91,12.72C113.8,378.31,120.63,372.85,119.79,365.29Z"/><path class="cls-9" d="M108.67,378.15h-.45a10.82,10.82,0,0,1-7.52-4.07,11.25,11.25,0,0,1-2.51-8.79l0,0L109,346.58l.11.19,10.78,18.51a11.28,11.28,0,0,1-3.12,9.1A11.64,11.64,0,0,1,108.67,378.15ZM98.44,365.34a11,11,0,0,0,2.45,8.57,10.58,10.58,0,0,0,7.34,4,11.22,11.22,0,0,0,8.39-3.68,11,11,0,0,0,3-8.87L109,347.08Z"/><path class="cls-8" d="M109,346.76l10.76,18.47,10.72-18.47c1-7-4.66-12.43-9.91-12.71C115,333.75,108.14,339.2,109,346.76Z"/><path class="cls-9" d="M119.74,365.48l-.11-.19-10.77-18.51a11.27,11.27,0,0,1,3.11-9.1,11.51,11.51,0,0,1,8.59-3.76,10.84,10.84,0,0,1,7.52,4.07,11.2,11.2,0,0,1,2.5,8.79v.05ZM109.1,346.72,119.74,365l10.6-18.26a11,11,0,0,0-2.45-8.57,10.6,10.6,0,0,0-7.35-4,11.27,11.27,0,0,0-8.39,3.68A11,11,0,0,0,109.1,346.72Z"/><path class="cls-8" d="M141.26,365.22,130.5,346.75l-10.72,18.47c-1,7,4.67,12.43,9.91,12.71C135.27,378.23,142.1,372.78,141.26,365.22Z"/><path class="cls-9" d="M130.13,378.07h-.44a10.86,10.86,0,0,1-7.53-4.07,11.24,11.24,0,0,1-2.5-8.79l0-.05L130.5,346.5l.11.19,10.78,18.51a11.27,11.27,0,0,1-3.12,9.1A11.65,11.65,0,0,1,130.13,378.07Zm-10.22-12.81a11,11,0,0,0,2.45,8.57,10.58,10.58,0,0,0,7.34,4,11.23,11.23,0,0,0,8.39-3.68,11.05,11.05,0,0,0,3-8.87L130.5,347Z"/><path class="cls-8" d="M130.49,346.74l10.76,18.46L152,346.74c1-7-4.66-12.44-9.91-12.72C136.48,333.72,129.66,339.18,130.49,346.74Z"/><path class="cls-9" d="M141.25,365.45l-.11-.18-10.77-18.52a11.28,11.28,0,0,1,3.11-9.1,11.48,11.48,0,0,1,8.59-3.75,10.79,10.79,0,0,1,7.52,4.06,11.23,11.23,0,0,1,2.5,8.8v0ZM130.61,346.7,141.25,365l10.6-18.25a11,11,0,0,0-2.45-8.58,10.59,10.59,0,0,0-7.35-4,11.22,11.22,0,0,0-8.39,3.67A11.06,11.06,0,0,0,130.61,346.7Z"/><path class="cls-8" d="M162.71,365.23,152,346.76l-10.72,18.47c-1,7,4.66,12.43,9.91,12.72C156.72,378.25,163.54,372.79,162.71,365.23Z"/><path class="cls-9" d="M151.58,378.08h-.45a10.84,10.84,0,0,1-7.52-4.07,11.2,11.2,0,0,1-2.5-8.79v0L152,346.52l.11.18,10.77,18.52a11.28,11.28,0,0,1-3.11,9.1A11.65,11.65,0,0,1,151.58,378.08Zm-10.23-12.81a11,11,0,0,0,2.45,8.58,10.59,10.59,0,0,0,7.35,4,11.2,11.2,0,0,0,8.38-3.67,11,11,0,0,0,3.05-8.88L152,347Z"/><path class="cls-8" d="M151.89,346.7l10.76,18.46,10.72-18.46c1-7-4.66-12.44-9.91-12.72C157.89,333.68,151.06,339.14,151.89,346.7Z"/><path class="cls-9" d="M162.65,365.41l-.1-.18-10.78-18.52a11.28,11.28,0,0,1,3.12-9.1,11.48,11.48,0,0,1,8.58-3.75,10.77,10.77,0,0,1,7.52,4.06,11.27,11.27,0,0,1,2.51,8.8l0,0ZM152,346.66l10.63,18.25,10.6-18.25a11,11,0,0,0-2.45-8.58,10.59,10.59,0,0,0-7.34-4,11.21,11.21,0,0,0-8.39,3.67A11,11,0,0,0,152,346.66Z"/><path class="cls-8" d="M184.17,365.15l-10.75-18.46L162.7,365.15c-1,7,4.66,12.43,9.91,12.72C178.18,378.17,185,372.71,184.17,365.15Z"/><path class="cls-9" d="M173.05,378h-.45a10.81,10.81,0,0,1-7.52-4.06,11.27,11.27,0,0,1-2.51-8.8l0,0,10.83-18.65.1.18,10.78,18.52a11.28,11.28,0,0,1-3.12,9.1A11.63,11.63,0,0,1,173.05,378Zm-10.23-12.81a11,11,0,0,0,2.45,8.58,10.59,10.59,0,0,0,7.34,4,11.21,11.21,0,0,0,8.39-3.67,11,11,0,0,0,3.05-8.88l-10.63-18.26Z"/><path class="cls-8" d="M173.41,346.67l10.75,18.47,10.72-18.47c1-7-4.66-12.43-9.91-12.71C179.4,333.66,172.57,339.11,173.41,346.67Z"/><path class="cls-9" d="M184.16,365.39l-.1-.19-10.78-18.51a11.29,11.29,0,0,1,3.12-9.11,11.48,11.48,0,0,1,8.58-3.75,10.82,10.82,0,0,1,7.52,4.07,11.25,11.25,0,0,1,2.51,8.79l0,.05Zm-10.63-18.76,10.63,18.26,10.6-18.26a11,11,0,0,0-2.45-8.57,10.56,10.56,0,0,0-7.34-4,11.22,11.22,0,0,0-8.39,3.68A11,11,0,0,0,173.53,346.63Z"/><path class="cls-8" d="M205.41,365.19l-10.76-18.47-10.72,18.47c-1,7,4.67,12.43,9.91,12.71C199.42,378.2,206.25,372.75,205.41,365.19Z"/><path class="cls-9" d="M194.29,378h-.45a10.86,10.86,0,0,1-7.53-4.07,11.24,11.24,0,0,1-2.5-8.79l0-.05,10.82-18.65.11.19,10.77,18.51a11.25,11.25,0,0,1-3.11,9.11A11.63,11.63,0,0,1,194.29,378Zm-10.24-12.81a11,11,0,0,0,2.46,8.57,10.58,10.58,0,0,0,7.34,4,11.18,11.18,0,0,0,8.39-3.68,11,11,0,0,0,3-8.87L194.65,347Z"/><path class="cls-8" d="M194.6,346.66l10.76,18.46,10.72-18.46c1-7-4.67-12.44-9.91-12.72C200.59,333.64,193.76,339.1,194.6,346.66Z"/><path class="cls-9" d="M205.36,365.37l-.11-.19-10.77-18.51a11.24,11.24,0,0,1,3.11-9.1,11.5,11.5,0,0,1,8.58-3.76,10.86,10.86,0,0,1,7.53,4.07,11.2,11.2,0,0,1,2.5,8.79l0,.05Zm-10.64-18.75,10.64,18.25L216,346.61a11,11,0,0,0-2.45-8.57,10.62,10.62,0,0,0-7.35-4,11.27,11.27,0,0,0-8.39,3.68A11.06,11.06,0,0,0,194.72,346.62Z"/><path class="cls-8" d="M226.88,365.11l-10.76-18.47L205.4,365.11c-1,7,4.67,12.43,9.91,12.72C220.89,378.13,227.72,372.67,226.88,365.11Z"/><path class="cls-9" d="M215.75,378h-.45a10.86,10.86,0,0,1-7.52-4.07,11.2,11.2,0,0,1-2.5-8.79v0l10.83-18.65.11.18L227,365.1a11.28,11.28,0,0,1-3.11,9.1A11.63,11.63,0,0,1,215.75,378Zm-10.23-12.81a11,11,0,0,0,2.45,8.58,10.59,10.59,0,0,0,7.35,4,11.21,11.21,0,0,0,8.39-3.67,11.06,11.06,0,0,0,3-8.88l-10.64-18.26Z"/><path class="cls-8" d="M216.11,346.63l10.76,18.47,10.72-18.47c1-7-4.67-12.43-9.91-12.72C222.1,333.61,215.27,339.07,216.11,346.63Z"/><path class="cls-9" d="M226.87,365.34l-.11-.18L216,346.64a11.24,11.24,0,0,1,3.11-9.1,11.48,11.48,0,0,1,8.58-3.75,10.86,10.86,0,0,1,7.53,4.07,11.2,11.2,0,0,1,2.5,8.79v0Zm-10.64-18.75,10.64,18.26,10.6-18.26A11.06,11.06,0,0,0,235,338a10.61,10.61,0,0,0-7.35-4,11.24,11.24,0,0,0-8.39,3.67A11.06,11.06,0,0,0,216.23,346.59Z"/><path class="cls-8" d="M248.32,365.12l-10.76-18.46-10.71,18.46c-1,7,4.66,12.44,9.91,12.72C242.33,378.14,249.16,372.68,248.32,365.12Z"/><path class="cls-9" d="M237.2,378l-.45,0a10.81,10.81,0,0,1-7.53-4.06,11.29,11.29,0,0,1-2.5-8.79l0-.05,10.82-18.65.11.18,10.78,18.52a11.28,11.28,0,0,1-3.12,9.1A11.64,11.64,0,0,1,237.2,378ZM227,365.16a11,11,0,0,0,2.45,8.58,10.57,10.57,0,0,0,7.34,4,11.19,11.19,0,0,0,8.39-3.67,11,11,0,0,0,3-8.88l-10.64-18.25Z"/><path class="cls-8" d="M237.51,346.59l10.76,18.47L259,346.59c1-7-4.66-12.43-9.91-12.72C243.5,333.57,236.67,339,237.51,346.59Z"/><path class="cls-9" d="M248.27,365.3l-.11-.18L237.39,346.6a11.28,11.28,0,0,1,3.11-9.1,11.52,11.52,0,0,1,8.59-3.75,10.84,10.84,0,0,1,7.52,4.07,11.2,11.2,0,0,1,2.5,8.79v0Zm-10.64-18.75,10.64,18.26,10.6-18.26a11,11,0,0,0-2.45-8.57,10.56,10.56,0,0,0-7.35-4,11.22,11.22,0,0,0-8.39,3.67A11.06,11.06,0,0,0,237.63,346.55Z"/><path class="cls-8" d="M269.79,365,259,346.58,248.31,365c-1,7,4.67,12.44,9.91,12.72C263.8,378.06,270.63,372.6,269.79,365Z"/><path class="cls-9" d="M258.67,377.9l-.45,0a10.81,10.81,0,0,1-7.53-4.06,11.28,11.28,0,0,1-2.5-8.79l0,0L259,346.33l.11.19L269.92,365a11.28,11.28,0,0,1-3.12,9.1A11.64,11.64,0,0,1,258.67,377.9Zm-10.24-12.81a11,11,0,0,0,2.46,8.57,10.53,10.53,0,0,0,7.34,4,11.22,11.22,0,0,0,8.39-3.67,11.06,11.06,0,0,0,3.05-8.88L259,346.83Z"/><path class="cls-8" d="M259,346.57,269.78,365l10.72-18.46c1-7-4.66-12.44-9.91-12.72C265,333.55,258.19,339,259,346.57Z"/><path class="cls-9" d="M269.78,365.28l-.11-.19L258.9,346.58a11.28,11.28,0,0,1,3.11-9.1,11.51,11.51,0,0,1,8.59-3.76,10.84,10.84,0,0,1,7.52,4.07,11.2,11.2,0,0,1,2.5,8.79v.05Zm-10.64-18.75,10.64,18.25,10.6-18.26a11,11,0,0,0-2.45-8.57,10.6,10.6,0,0,0-7.35-4,11.27,11.27,0,0,0-8.39,3.68A11.06,11.06,0,0,0,259.14,346.53Z"/></g><polyline class="cls-1" points="121.52 378.3 261.78 378.3 261.78 332.8 121.52 332.8"/><rect class="cls-10" x="121.42" y="317.97" width="140.47" height="14.83"/><rect class="cls-11" x="121.42" y="378.61" width="140.47" height="15.72"/><g id="LINE-2" data-name="LINE"><polyline class="cls-12" points="121.42 392.24 99.42 392.24 99.42 319.91 121.42 319.91"/></g><g id="LINE-3" data-name="LINE"><line class="cls-13" x1="1221.92" y1="410.06" x2="1221.92" y2="394.33"/></g><g id="LINE-4" data-name="LINE"><line class="cls-13" x1="1200.95" y1="394.33" x2="1200.95" y2="368.13"/></g><g id="LINE-5" data-name="LINE"><line class="cls-13" x1="1169.5" y1="368.13" x2="1169.5" y2="394.33"/></g><g id="LINE-6" data-name="LINE"><line class="cls-13" x1="1192.04" y1="368.13" x2="1192.04" y2="378.61"/></g><g id="LINE-7" data-name="LINE"><line class="cls-13" x1="1192.04" y1="378.61" x2="1183.65" y2="378.61"/></g><g id="LINE-8" data-name="LINE"><line class="cls-13" x1="1183.65" y1="378.61" x2="1183.65" y2="368.13"/></g><g id="LINE-9" data-name="LINE"><line class="cls-13" x1="1169.5" y1="394.33" x2="1169.5" y2="410.06"/></g><g id="LINE-10" data-name="LINE"><line class="cls-13" x1="1200.95" y1="368.13" x2="1200.95" y2="323.05"/></g><g id="LINE-11" data-name="LINE"><line class="cls-13" x1="1200.95" y1="323.05" x2="1190.47" y2="323.05"/></g><g id="LINE-12" data-name="LINE"><line class="cls-13" x1="1183.65" y1="355.55" x2="1183.65" y2="352.4"/></g><g id="LINE-13" data-name="LINE"><line class="cls-13" x1="1183.65" y1="352.4" x2="1192.04" y2="352.4"/></g><g id="LINE-14" data-name="LINE"><line class="cls-13" x1="1192.04" y1="352.4" x2="1192.04" y2="355.55"/></g><g id="LINE-15" data-name="LINE"><line class="cls-13" x1="1157.97" y1="317.81" x2="1157.97" y2="323.05"/></g><g id="LINE-16" data-name="LINE"><line class="cls-13" x1="1157.97" y1="323.05" x2="1153.78" y2="323.05"/></g><g id="LINE-17" data-name="LINE"><line class="cls-13" x1="1190.47" y1="323.05" x2="1190.47" y2="317.81"/></g><g id="LINE-18" data-name="LINE"><line class="cls-13" x1="1190.47" y1="317.81" x2="1190.47" y2="313.56"/></g><g id="LINE-19" data-name="LINE"><line class="cls-13" x1="1183.65" y1="368.13" x2="1179.98" y2="368.13"/></g><g id="LINE-20" data-name="LINE"><line class="cls-13" x1="1179.98" y1="368.13" x2="1179.98" y2="364.98"/></g><g id="LINE-21" data-name="LINE"><line class="cls-13" x1="1153.78" y1="323.05" x2="1153.78" y2="364.98"/></g><g id="LINE-22" data-name="LINE"><line class="cls-13" x1="1153.78" y1="364.98" x2="1159.02" y2="364.98"/></g><g id="LINE-23" data-name="LINE"><line class="cls-13" x1="1159.02" y1="364.98" x2="1179.98" y2="364.98"/></g><g id="LINE-24" data-name="LINE"><line class="cls-13" x1="1183.65" y1="355.55" x2="1192.04" y2="355.55"/></g><g id="LINE-25" data-name="LINE"><line class="cls-13" x1="1190.47" y1="317.81" x2="1221.92" y2="317.81"/></g><g id="LINE-26" data-name="LINE"><line class="cls-13" x1="1190.47" y1="310.47" x2="1190.47" y2="313.56"/></g><g id="LINE-27" data-name="LINE"><line class="cls-13" x1="1221.92" y1="317.81" x2="1221.92" y2="302.08"/></g><g id="LINE-28" data-name="LINE"><line class="cls-13" x1="1221.92" y1="302.08" x2="1153.78" y2="302.08"/></g><g id="LINE-29" data-name="LINE"><line class="cls-13" x1="1153.78" y1="302.08" x2="1153.78" y2="317.81"/></g><g id="LINE-30" data-name="LINE"><line class="cls-13" x1="1153.78" y1="317.81" x2="1157.97" y2="317.81"/></g><g id="LINE-31" data-name="LINE"><line class="cls-13" x1="1190.47" y1="310.47" x2="1157.97" y2="310.47"/></g><g id="LINE-32" data-name="LINE"><line class="cls-14" x1="285.28" y1="355.55" x2="276.89" y2="355.55"/></g><g id="LINE-33" data-name="LINE"><line class="cls-14" x1="276.89" y1="378.61" x2="285.28" y2="378.61"/></g><g id="LINE-34" data-name="LINE"><line class="cls-14" x1="267.98" y1="394.33" x2="247.01" y2="394.33"/></g><g id="LINE-35" data-name="LINE"><line class="cls-14" x1="285.28" y1="378.61" x2="285.28" y2="368.13"/></g><g id="LINE-36" data-name="LINE"><line class="cls-14" x1="276.89" y1="368.13" x2="276.89" y2="378.61"/></g><g id="LINE-37" data-name="LINE"><line class="cls-14" x1="267.98" y1="394.33" x2="267.98" y2="368.13"/></g><g id="LINE-38" data-name="LINE"><line class="cls-14" x1="299.43" y1="410.06" x2="247.01" y2="410.06"/></g><g id="LINE-39" data-name="LINE"><line class="cls-14" x1="247.01" y1="410.06" x2="247.01" y2="394.33"/></g><g id="LINE-40" data-name="LINE"><line class="cls-13" x1="278.46" y1="317.81" x2="247.01" y2="317.81"/></g><g id="LINE-41" data-name="LINE"><line class="cls-13" x1="247.01" y1="317.81" x2="247.01" y2="302.08"/></g><g id="LINE-42" data-name="LINE"><polygon class="cls-15" points="278.46 317.81 247.01 317.72 247.01 302.08 315.15 302.08 315.15 317.81 310.96 317.94 310.96 312.57 310.96 310.47 278.46 310.47 278.46 317.81"/></g><g id="LINE-43" data-name="LINE"><line class="cls-13" x1="315.15" y1="317.81" x2="315.15" y2="302.08"/></g><g id="LINE-44" data-name="LINE"><line class="cls-13" x1="310.96" y1="317.81" x2="315.15" y2="317.81"/></g><g id="LINE-46" data-name="LINE"><line class="cls-13" x1="302.55" y1="410.06" x2="302.55" y2="370.22"/></g><g id="LINE-47" data-name="LINE"><line class="cls-13" x1="302.55" y1="370.22" x2="1165.73" y2="370.22"/></g><g id="LINE-48" data-name="LINE"><line class="cls-13" x1="1165.73" y1="370.22" x2="1165.73" y2="410.06"/></g><g id="LINE-49" data-name="LINE"><line class="cls-13" x1="1165.73" y1="410.06" x2="302.55" y2="410.06"/></g><g id="LINE-50" data-name="LINE"><line class="cls-13" x1="1169.5" y1="368.13" x2="1179.98" y2="368.13"/></g><g id="LINE-51" data-name="LINE"><line class="cls-13" x1="1200.95" y1="394.33" x2="1221.92" y2="394.33"/></g><g id="LINE-52" data-name="LINE"><line class="cls-13" x1="1192.04" y1="355.55" x2="1192.04" y2="368.13"/></g><g id="LINE-53" data-name="LINE"><line class="cls-13" x1="1183.65" y1="368.13" x2="1183.65" y2="355.55"/></g><g id="LINE-54" data-name="LINE"><line class="cls-13" x1="1157.97" y1="310.47" x2="1157.97" y2="312.57"/></g><g id="LINE-55" data-name="LINE"><line class="cls-13" x1="1157.97" y1="312.57" x2="1157.97" y2="317.81"/></g><g id="LINE-56" data-name="LINE"><line class="cls-14" x1="288.95" y1="368.13" x2="299.43" y2="368.13"/></g><g id="LINE-57" data-name="LINE"><line class="cls-14" x1="299.43" y1="394.33" x2="267.98" y2="394.33"/></g><g id="LINE-58" data-name="LINE"><line class="cls-16" x1="288.95" y1="368.13" x2="288.95" y2="364.98"/></g><g id="LINE-59" data-name="LINE"><line class="cls-16" x1="278.46" y1="317.81" x2="278.46" y2="323.05"/></g><g id="LINE-60" data-name="LINE"><line class="cls-16" x1="310.96" y1="323.05" x2="315.15" y2="323.05"/></g><g id="LINE-61" data-name="LINE"><line class="cls-16" x1="276.89" y1="368.13" x2="267.98" y2="368.13"/></g><g id="LINE-62" data-name="LINE"><line class="cls-16" x1="267.98" y1="368.13" x2="267.98" y2="323.05"/></g><g id="LINE-63" data-name="LINE"><polyline class="cls-17" points="278.46 323.05 278.46 323.05 278.46 310.47 310.96 310.47 310.96 323.05 315.15 323.05 315.15 364.98 288.94 364.98 288.94 368.13 285.28 368.13 285.28 352.4 276.89 352.4 276.89 368.13 267.98 368.13 267.98 323.05 278.46 323.05"/></g><g id="LINE-64" data-name="LINE"><line class="cls-13" x1="1169.5" y1="410.06" x2="1221.92" y2="410.06"/></g><g id="LINE-65" data-name="LINE"><line class="cls-13" x1="1200.95" y1="368.13" x2="1192.04" y2="368.13"/></g><g id="LINE-66" data-name="LINE"><line class="cls-13" x1="1200.95" y1="394.33" x2="1169.5" y2="394.33"/></g><g id="LINE-67" data-name="LINE"><line class="cls-14" x1="299.43" y1="410.06" x2="299.43" y2="394.33"/></g><g id="LINE-68" data-name="LINE"><line class="cls-14" x1="299.43" y1="394.33" x2="299.43" y2="368.13"/></g><g id="LINE-77" data-name="LINE"><path class="cls-18" d="M1208.27,394.28V496.54c-315,0-631.49-2-946.49-2,0-34,0-66.47.05-100.22"/></g><text id="OUVERTURE_L" class="cls-19" transform="translate(681.48 513.25)">902 mm</text><text id="CLOISON_E" class="cls-20" transform="translate(94.56 378.61) rotate(-90)">74 mm</text><polyline class="cls-21" points="244.74 410.06 47.44 410.06 50.03 302.08 244.74 302.08"/><text id="CADRE_E" class="cls-22" transform="translate(45.43 383.97) rotate(-90)">114 mm</text><polyline class="cls-21" points="247.01 299.09 247.01 267.14 315.15 267.14 315.15 299.09"/><text id="COUVRE_JOINT_L" class="cls-22" transform="translate(263.96 263.83)">70 mm</text><polyline class="cls-23" points="318.37 302.08 348.22 302.08 348.22 317.81 318.37 317.81"/><text id="COUVRE_JOINT_E" class="cls-22" transform="translate(354.8 314.23)">20 mm</text><g id="LINE-78" data-name="LINE"><polyline class="cls-17" points="1208.27 378.25 1208.19 333.61 1208.19 342.08"/><polyline class="cls-6" points="1208.19 378.59 1348.65 378.59 1348.65 333.61"/></g><g class="cls-24"><path class="cls-8" d="M1206.56,365.37l-10.76-18.46-10.71,18.46c-1,7,4.66,12.43,9.91,12.72C1200.57,378.39,1207.4,372.93,1206.56,365.37Z"/><path class="cls-9" d="M1195.44,378.22H1195a10.84,10.84,0,0,1-7.52-4.06,11.27,11.27,0,0,1-2.51-8.8l0,0,10.82-18.65.11.18,10.78,18.52a11.28,11.28,0,0,1-3.12,9.1A11.63,11.63,0,0,1,1195.44,378.22Zm-10.23-12.81a11,11,0,0,0,2.45,8.58,10.57,10.57,0,0,0,7.34,4,11.21,11.21,0,0,0,8.39-3.67,11,11,0,0,0,3-8.88l-10.64-18.26Z"/><path class="cls-8" d="M1195.75,346.84l10.76,18.46,10.72-18.46c1-7-4.66-12.43-9.91-12.72C1201.74,333.82,1194.91,339.28,1195.75,346.84Z"/><path class="cls-9" d="M1206.51,365.55l-.11-.18-10.77-18.52a11.28,11.28,0,0,1,3.11-9.1,11.54,11.54,0,0,1,8.59-3.75,10.86,10.86,0,0,1,7.52,4.06,11.24,11.24,0,0,1,2.5,8.8v0Zm-10.64-18.75,10.64,18.26,10.6-18.26a11,11,0,0,0-2.45-8.58,10.59,10.59,0,0,0-7.35-4,11.22,11.22,0,0,0-8.39,3.67A11.06,11.06,0,0,0,1195.87,346.8Z"/><path class="cls-8" d="M1228,365.29l-10.76-18.46-10.72,18.46c-1,7,4.67,12.44,9.91,12.72C1222,378.31,1228.87,372.85,1228,365.29Z"/><path class="cls-9" d="M1216.9,378.15l-.44,0a10.81,10.81,0,0,1-7.53-4.06,11.25,11.25,0,0,1-2.5-8.79l0,0,10.82-18.65.11.18,10.78,18.52a11.28,11.28,0,0,1-3.12,9.1A11.65,11.65,0,0,1,1216.9,378.15Zm-10.22-12.82a11,11,0,0,0,2.45,8.58,10.57,10.57,0,0,0,7.34,4,11.22,11.22,0,0,0,8.39-3.67,11.06,11.06,0,0,0,3.05-8.88l-10.64-18.25Z"/><path class="cls-8" d="M1217.26,346.81,1228,365.28l10.72-18.47c1-7-4.66-12.43-9.91-12.71C1223.25,333.8,1216.43,339.25,1217.26,346.81Z"/><path class="cls-9" d="M1228,365.53l-.11-.19-10.77-18.51a11.27,11.27,0,0,1,3.11-9.1,11.49,11.49,0,0,1,8.59-3.76,10.84,10.84,0,0,1,7.52,4.07,11.2,11.2,0,0,1,2.5,8.79v.05Zm-10.64-18.76L1228,365l10.6-18.26a11,11,0,0,0-2.45-8.57,10.6,10.6,0,0,0-7.35-4,11.23,11.23,0,0,0-8.39,3.68A11,11,0,0,0,1217.38,346.77Z"/><path class="cls-8" d="M1249.48,365.31l-10.76-18.47L1228,365.31c-1,7,4.66,12.43,9.91,12.71C1243.49,378.32,1250.31,372.87,1249.48,365.31Z"/><path class="cls-9" d="M1238.35,378.16h-.45a10.82,10.82,0,0,1-7.52-4.07,11.2,11.2,0,0,1-2.5-8.79v-.05l10.83-18.65.11.19,10.77,18.51a11.27,11.27,0,0,1-3.11,9.1A11.66,11.66,0,0,1,1238.35,378.16Zm-10.23-12.81a11,11,0,0,0,2.45,8.57,10.6,10.6,0,0,0,7.34,4,11.25,11.25,0,0,0,8.39-3.68,11,11,0,0,0,3-8.87l-10.63-18.26Z"/><path class="cls-8" d="M1238.66,346.77l10.76,18.47,10.72-18.47c1-7-4.66-12.43-9.91-12.71C1244.66,333.76,1237.83,339.21,1238.66,346.77Z"/><path class="cls-9" d="M1249.42,365.49l-.1-.19-10.78-18.51a11.27,11.27,0,0,1,3.12-9.1,11.46,11.46,0,0,1,8.58-3.76,10.82,10.82,0,0,1,7.52,4.07,11.25,11.25,0,0,1,2.51,8.79l0,0Zm-10.63-18.76L1249.42,365l10.6-18.26a11,11,0,0,0-2.45-8.57,10.6,10.6,0,0,0-7.34-4,11.25,11.25,0,0,0-8.39,3.68A11,11,0,0,0,1238.79,346.73Z"/><path class="cls-8" d="M1270.94,365.23l-10.75-18.47-10.72,18.47c-1,7,4.66,12.43,9.91,12.71C1265,378.24,1271.78,372.79,1270.94,365.23Z"/><path class="cls-9" d="M1259.82,378.08h-.45a10.82,10.82,0,0,1-7.52-4.07,11.25,11.25,0,0,1-2.51-8.79l0,0,10.83-18.65.1.19,10.78,18.51a11.31,11.31,0,0,1-3.12,9.11A11.63,11.63,0,0,1,1259.82,378.08Zm-10.23-12.81a11,11,0,0,0,2.45,8.57,10.58,10.58,0,0,0,7.34,4,11.18,11.18,0,0,0,8.39-3.68,11,11,0,0,0,3-8.87L1260.19,347Z"/><path class="cls-8" d="M1260.18,346.75l10.75,18.46,10.72-18.46c1-7-4.66-12.44-9.91-12.72C1266.17,333.73,1259.34,339.19,1260.18,346.75Z"/><path class="cls-9" d="M1270.93,365.46l-.1-.18-10.78-18.52a11.28,11.28,0,0,1,3.12-9.1,11.48,11.48,0,0,1,8.58-3.75,10.81,10.81,0,0,1,7.52,4.06,11.27,11.27,0,0,1,2.51,8.8l0,0Zm-10.63-18.75L1270.93,365l10.6-18.26a11,11,0,0,0-2.45-8.58,10.59,10.59,0,0,0-7.34-4,11.24,11.24,0,0,0-8.39,3.67A11,11,0,0,0,1260.3,346.71Z"/><path class="cls-8" d="M1292.18,365.26l-10.76-18.46-10.72,18.46c-1,7,4.67,12.44,9.91,12.72C1286.19,378.28,1293,372.82,1292.18,365.26Z"/><path class="cls-9" d="M1281.06,378.12l-.45,0a10.81,10.81,0,0,1-7.53-4.06,11.24,11.24,0,0,1-2.5-8.79l0-.05,10.82-18.65.11.19,10.77,18.51a11.24,11.24,0,0,1-3.11,9.1A11.64,11.64,0,0,1,1281.06,378.12Zm-10.24-12.81a11,11,0,0,0,2.46,8.57,10.53,10.53,0,0,0,7.34,4,11.21,11.21,0,0,0,8.39-3.67,11.06,11.06,0,0,0,3-8.88l-10.64-18.25Z"/><path class="cls-8" d="M1281.37,346.73l10.76,18.47,10.72-18.47c1-7-4.67-12.43-9.91-12.71C1287.36,333.72,1280.53,339.17,1281.37,346.73Z"/><path class="cls-9" d="M1292.13,365.45l-.11-.19-10.77-18.51a11.26,11.26,0,0,1,3.11-9.11,11.53,11.53,0,0,1,8.58-3.75,10.86,10.86,0,0,1,7.53,4.07,11.24,11.24,0,0,1,2.5,8.79l0,.05Zm-10.64-18.76L1292.13,365l10.6-18.26a11,11,0,0,0-2.46-8.57,10.54,10.54,0,0,0-7.34-4,11.23,11.23,0,0,0-8.39,3.68A11,11,0,0,0,1281.49,346.69Z"/><path class="cls-8" d="M1313.65,365.19l-10.76-18.47-10.72,18.47c-1,7,4.67,12.43,9.91,12.71C1307.66,378.2,1314.49,372.75,1313.65,365.19Z"/><path class="cls-9" d="M1302.52,378h-.45a10.84,10.84,0,0,1-7.52-4.07,11.2,11.2,0,0,1-2.5-8.79v-.05l10.83-18.65.11.19,10.77,18.51a11.27,11.27,0,0,1-3.11,9.1A11.65,11.65,0,0,1,1302.52,378Zm-10.23-12.81a11,11,0,0,0,2.45,8.57,10.6,10.6,0,0,0,7.35,4,11.22,11.22,0,0,0,8.39-3.68,11.05,11.05,0,0,0,3-8.87L1302.89,347Z"/><path class="cls-8" d="M1302.88,346.71l10.76,18.46,10.72-18.46c1-7-4.67-12.44-9.91-12.72C1308.87,333.69,1302,339.15,1302.88,346.71Z"/><path class="cls-9" d="M1313.64,365.42l-.11-.19-10.77-18.51a11.24,11.24,0,0,1,3.11-9.1,11.44,11.44,0,0,1,8.58-3.75,10.81,10.81,0,0,1,7.53,4.06,11.2,11.2,0,0,1,2.5,8.79v0ZM1303,346.67l10.64,18.25,10.6-18.26a11,11,0,0,0-2.45-8.57,10.61,10.61,0,0,0-7.35-4,11.2,11.2,0,0,0-8.39,3.67A11.06,11.06,0,0,0,1303,346.67Z"/><path class="cls-8" d="M1335.09,365.2l-10.76-18.47-10.71,18.47c-1,7,4.66,12.43,9.91,12.71C1329.1,378.22,1335.93,372.76,1335.09,365.2Z"/><path class="cls-9" d="M1324,378.05h-.45A10.86,10.86,0,0,1,1316,374a11.28,11.28,0,0,1-2.5-8.79l0,0,10.82-18.65.11.18,10.78,18.52a11.28,11.28,0,0,1-3.12,9.1A11.63,11.63,0,0,1,1324,378.05Zm-10.23-12.81a11,11,0,0,0,2.45,8.57,10.54,10.54,0,0,0,7.34,4,11.17,11.17,0,0,0,8.39-3.68,11,11,0,0,0,3-8.87L1324.33,347Z"/><path class="cls-8" d="M1324.28,346.67,1335,365.13l10.72-18.46c1-7-4.66-12.44-9.91-12.72C1330.27,333.65,1323.44,339.11,1324.28,346.67Z"/><path class="cls-9" d="M1335,365.38l-.11-.18-10.77-18.52a11.28,11.28,0,0,1,3.11-9.1,11.45,11.45,0,0,1,8.59-3.75,10.79,10.79,0,0,1,7.52,4.06,11.21,11.21,0,0,1,2.5,8.79v.05Zm-10.64-18.75L1335,364.88l10.6-18.25a11,11,0,0,0-2.45-8.58,10.59,10.59,0,0,0-7.35-4,11.19,11.19,0,0,0-8.39,3.67A11.06,11.06,0,0,0,1324.4,346.63Z"/><path class="cls-8" d="M1356.56,365.12l-10.76-18.46-10.72,18.46c-1,7,4.67,12.43,9.91,12.72C1350.57,378.14,1357.4,372.68,1356.56,365.12Z"/><path class="cls-9" d="M1345.44,378H1345a10.89,10.89,0,0,1-7.53-4.06,11.26,11.26,0,0,1-2.5-8.8l0,0,10.82-18.65.11.18,10.78,18.52a11.28,11.28,0,0,1-3.12,9.1A11.63,11.63,0,0,1,1345.44,378Zm-10.24-12.81a11,11,0,0,0,2.46,8.58,10.57,10.57,0,0,0,7.34,4,11.26,11.26,0,0,0,8.39-3.67,11.06,11.06,0,0,0,3-8.88L1345.8,346.9Z"/><path class="cls-8" d="M1345.79,346.64l10.76,18.47,10.72-18.47c1-7-4.66-12.43-9.91-12.71C1351.78,333.62,1345,339.08,1345.79,346.64Z"/><path class="cls-9" d="M1356.55,365.36l-.11-.19-10.77-18.52a11.28,11.28,0,0,1,3.11-9.1,11.5,11.5,0,0,1,8.59-3.75,10.84,10.84,0,0,1,7.52,4.07,11.2,11.2,0,0,1,2.5,8.79v0Zm-10.64-18.76,10.64,18.26,10.6-18.26a11,11,0,0,0-2.45-8.57,10.56,10.56,0,0,0-7.35-4,11.2,11.2,0,0,0-8.39,3.68A11,11,0,0,0,1345.91,346.6Z"/></g><polyline class="cls-1" points="1208.29 378.37 1348.55 378.37 1348.55 332.87 1208.29 332.87"/><rect class="cls-25" x="1208.19" y="318.04" width="140.47" height="14.83"/><rect class="cls-26" x="1208.19" y="378.69" width="140.47" height="15.72"/><polygon class="cls-17" points="276.89 368.13 267.98 368.13 267.98 394.33 247.01 394.33 247.01 409.98 299.43 409.99 299.43 394.33 299.43 368.13 285.28 368.13 285.28 378.61 276.89 378.61 276.89 368.13"/><path class="cls-17" d="M268,394.33h31.45"/><polyline class="cls-27" points="302.55 412.98 302.55 430.32 1165.73 433.45 1165.73 411.99"/><text id="PORTE_L" class="cls-28" transform="translate(688.31 446.99)">816 mm</text><line class="cls-29" x1="315.15" y1="344.03" x2="1153.78" y2="341.53"/><text id="PASSAGE_L" class="cls-30" transform="translate(688.31 331.4)">790 mm</text></svg>